<mxfile host="Electron" modified="2025-06-12T08:12:52.008Z" agent="Mozilla/5.0 (Windows NT 10.0; Win64; x64) AppleWebKit/537.36 (KHTML, like Gecko) draw.io/24.6.4 Chrome/124.0.6367.207 Electron/30.0.6 Safari/537.36" etag="nmUQ4e4ddWdTI59LOyb2" version="24.6.4" type="device">
  <diagram name="Seite-1" id="U87e9riAWjf_ATkIwI54">
    <mxGraphModel dx="2739" dy="2284" grid="1" gridSize="10" guides="1" tooltips="1" connect="1" arrows="1" fold="1" page="1" pageScale="1" pageWidth="827" pageHeight="1169" math="0" shadow="0">
      <root>
        <mxCell id="0" />
        <mxCell id="1" parent="0" />
        <mxCell id="LF_uzQrmGtcTdr1EB5Od-2" value="Grunddaten" style="shape=table;startSize=30;container=1;collapsible=1;childLayout=tableLayout;fixedRows=1;rowLines=0;fontStyle=1;align=center;resizeLast=1;html=1;" vertex="1" parent="1">
          <mxGeometry x="580" y="270" width="556" height="480" as="geometry" />
        </mxCell>
        <mxCell id="LF_uzQrmGtcTdr1EB5Od-3" value="" style="shape=tableRow;horizontal=0;startSize=0;swimlaneHead=0;swimlaneBody=0;fillColor=none;collapsible=0;dropTarget=0;points=[[0,0.5],[1,0.5]];portConstraint=eastwest;top=0;left=0;right=0;bottom=1;spacingLeft=6;" vertex="1" parent="LF_uzQrmGtcTdr1EB5Od-2">
          <mxGeometry y="30" width="556" height="30" as="geometry" />
        </mxCell>
        <mxCell id="LF_uzQrmGtcTdr1EB5Od-5" value="Columnname" style="shape=partialRectangle;connectable=0;fillColor=none;top=0;left=0;bottom=0;right=0;align=left;spacingLeft=6;fontStyle=5;overflow=hidden;whiteSpace=wrap;html=1;" vertex="1" parent="LF_uzQrmGtcTdr1EB5Od-3">
          <mxGeometry width="266" height="30" as="geometry">
            <mxRectangle width="266" height="30" as="alternateBounds" />
          </mxGeometry>
        </mxCell>
        <mxCell id="LF_uzQrmGtcTdr1EB5Od-43" value="Type" style="shape=partialRectangle;connectable=0;fillColor=none;top=0;left=0;bottom=0;right=0;align=left;spacingLeft=6;fontStyle=5;overflow=hidden;whiteSpace=wrap;html=1;" vertex="1" parent="LF_uzQrmGtcTdr1EB5Od-3">
          <mxGeometry x="266" width="90" height="30" as="geometry">
            <mxRectangle width="90" height="30" as="alternateBounds" />
          </mxGeometry>
        </mxCell>
        <mxCell id="LF_uzQrmGtcTdr1EB5Od-15" value="PK" style="shape=partialRectangle;connectable=0;fillColor=none;top=0;left=0;bottom=0;right=0;align=left;spacingLeft=6;fontStyle=5;overflow=hidden;whiteSpace=wrap;html=1;" vertex="1" parent="LF_uzQrmGtcTdr1EB5Od-3">
          <mxGeometry x="356" width="40" height="30" as="geometry">
            <mxRectangle width="40" height="30" as="alternateBounds" />
          </mxGeometry>
        </mxCell>
        <mxCell id="LF_uzQrmGtcTdr1EB5Od-19" value="FK" style="shape=partialRectangle;connectable=0;fillColor=none;top=0;left=0;bottom=0;right=0;align=left;spacingLeft=6;fontStyle=5;overflow=hidden;whiteSpace=wrap;html=1;" vertex="1" parent="LF_uzQrmGtcTdr1EB5Od-3">
          <mxGeometry x="396" width="40" height="30" as="geometry">
            <mxRectangle width="40" height="30" as="alternateBounds" />
          </mxGeometry>
        </mxCell>
        <mxCell id="LF_uzQrmGtcTdr1EB5Od-23" value="UQ" style="shape=partialRectangle;connectable=0;fillColor=none;top=0;left=0;bottom=0;right=0;align=left;spacingLeft=6;fontStyle=5;overflow=hidden;whiteSpace=wrap;html=1;" vertex="1" parent="LF_uzQrmGtcTdr1EB5Od-3">
          <mxGeometry x="436" width="40" height="30" as="geometry">
            <mxRectangle width="40" height="30" as="alternateBounds" />
          </mxGeometry>
        </mxCell>
        <mxCell id="LF_uzQrmGtcTdr1EB5Od-27" value="AA" style="shape=partialRectangle;connectable=0;fillColor=none;top=0;left=0;bottom=0;right=0;align=left;spacingLeft=6;fontStyle=5;overflow=hidden;whiteSpace=wrap;html=1;" vertex="1" parent="LF_uzQrmGtcTdr1EB5Od-3">
          <mxGeometry x="476" width="40" height="30" as="geometry">
            <mxRectangle width="40" height="30" as="alternateBounds" />
          </mxGeometry>
        </mxCell>
        <mxCell id="LF_uzQrmGtcTdr1EB5Od-31" style="shape=partialRectangle;connectable=0;fillColor=none;top=0;left=0;bottom=0;right=0;align=left;spacingLeft=6;fontStyle=5;overflow=hidden;whiteSpace=wrap;html=1;" vertex="1" parent="LF_uzQrmGtcTdr1EB5Od-3">
          <mxGeometry x="516" width="40" height="30" as="geometry">
            <mxRectangle width="40" height="30" as="alternateBounds" />
          </mxGeometry>
        </mxCell>
        <mxCell id="LF_uzQrmGtcTdr1EB5Od-6" value="" style="shape=tableRow;horizontal=0;startSize=0;swimlaneHead=0;swimlaneBody=0;fillColor=none;collapsible=0;dropTarget=0;points=[[0,0.5],[1,0.5]];portConstraint=eastwest;top=0;left=0;right=0;bottom=0;" vertex="1" parent="LF_uzQrmGtcTdr1EB5Od-2">
          <mxGeometry y="60" width="556" height="30" as="geometry" />
        </mxCell>
        <mxCell id="LF_uzQrmGtcTdr1EB5Od-8" value="id" style="shape=partialRectangle;connectable=0;fillColor=none;top=0;left=0;bottom=0;right=0;align=left;spacingLeft=6;overflow=hidden;whiteSpace=wrap;html=1;" vertex="1" parent="LF_uzQrmGtcTdr1EB5Od-6">
          <mxGeometry width="266" height="30" as="geometry">
            <mxRectangle width="266" height="30" as="alternateBounds" />
          </mxGeometry>
        </mxCell>
        <mxCell id="LF_uzQrmGtcTdr1EB5Od-44" value="INTEGER" style="shape=partialRectangle;connectable=0;fillColor=none;top=0;left=0;bottom=0;right=0;align=center;spacingLeft=0;overflow=hidden;whiteSpace=wrap;html=1;" vertex="1" parent="LF_uzQrmGtcTdr1EB5Od-6">
          <mxGeometry x="266" width="90" height="30" as="geometry">
            <mxRectangle width="90" height="30" as="alternateBounds" />
          </mxGeometry>
        </mxCell>
        <mxCell id="LF_uzQrmGtcTdr1EB5Od-16" value="&lt;font style=&quot;font-size: 16px;&quot;&gt;✅&lt;/font&gt;" style="shape=partialRectangle;connectable=0;fillColor=none;top=0;left=0;bottom=0;right=0;align=center;spacingLeft=0;overflow=hidden;whiteSpace=wrap;html=1;fontSize=16;" vertex="1" parent="LF_uzQrmGtcTdr1EB5Od-6">
          <mxGeometry x="356" width="40" height="30" as="geometry">
            <mxRectangle width="40" height="30" as="alternateBounds" />
          </mxGeometry>
        </mxCell>
        <mxCell id="LF_uzQrmGtcTdr1EB5Od-20" style="shape=partialRectangle;connectable=0;fillColor=none;top=0;left=0;bottom=0;right=0;align=center;spacingLeft=0;overflow=hidden;whiteSpace=wrap;html=1;fontSize=16;" vertex="1" parent="LF_uzQrmGtcTdr1EB5Od-6">
          <mxGeometry x="396" width="40" height="30" as="geometry">
            <mxRectangle width="40" height="30" as="alternateBounds" />
          </mxGeometry>
        </mxCell>
        <mxCell id="LF_uzQrmGtcTdr1EB5Od-24" style="shape=partialRectangle;connectable=0;fillColor=none;top=0;left=0;bottom=0;right=0;align=center;spacingLeft=0;overflow=hidden;whiteSpace=wrap;html=1;fontSize=16;" vertex="1" parent="LF_uzQrmGtcTdr1EB5Od-6">
          <mxGeometry x="436" width="40" height="30" as="geometry">
            <mxRectangle width="40" height="30" as="alternateBounds" />
          </mxGeometry>
        </mxCell>
        <mxCell id="LF_uzQrmGtcTdr1EB5Od-28" value="✅" style="shape=partialRectangle;connectable=0;fillColor=none;top=0;left=0;bottom=0;right=0;align=center;spacingLeft=0;overflow=hidden;whiteSpace=wrap;html=1;fontSize=16;" vertex="1" parent="LF_uzQrmGtcTdr1EB5Od-6">
          <mxGeometry x="476" width="40" height="30" as="geometry">
            <mxRectangle width="40" height="30" as="alternateBounds" />
          </mxGeometry>
        </mxCell>
        <mxCell id="LF_uzQrmGtcTdr1EB5Od-32" style="shape=partialRectangle;connectable=0;fillColor=none;top=0;left=0;bottom=0;right=0;align=center;spacingLeft=0;overflow=hidden;whiteSpace=wrap;html=1;fontSize=16;" vertex="1" parent="LF_uzQrmGtcTdr1EB5Od-6">
          <mxGeometry x="516" width="40" height="30" as="geometry">
            <mxRectangle width="40" height="30" as="alternateBounds" />
          </mxGeometry>
        </mxCell>
        <mxCell id="LF_uzQrmGtcTdr1EB5Od-9" value="" style="shape=tableRow;horizontal=0;startSize=0;swimlaneHead=0;swimlaneBody=0;fillColor=none;collapsible=0;dropTarget=0;points=[[0,0.5],[1,0.5]];portConstraint=eastwest;top=0;left=0;right=0;bottom=0;" vertex="1" parent="LF_uzQrmGtcTdr1EB5Od-2">
          <mxGeometry y="90" width="556" height="30" as="geometry" />
        </mxCell>
        <mxCell id="LF_uzQrmGtcTdr1EB5Od-11" value="suchname" style="shape=partialRectangle;connectable=0;fillColor=none;top=0;left=0;bottom=0;right=0;align=left;spacingLeft=6;overflow=hidden;whiteSpace=wrap;html=1;" vertex="1" parent="LF_uzQrmGtcTdr1EB5Od-9">
          <mxGeometry width="266" height="30" as="geometry">
            <mxRectangle width="266" height="30" as="alternateBounds" />
          </mxGeometry>
        </mxCell>
        <mxCell id="LF_uzQrmGtcTdr1EB5Od-45" value="TEXT" style="shape=partialRectangle;connectable=0;fillColor=none;top=0;left=0;bottom=0;right=0;align=center;spacingLeft=0;overflow=hidden;whiteSpace=wrap;html=1;" vertex="1" parent="LF_uzQrmGtcTdr1EB5Od-9">
          <mxGeometry x="266" width="90" height="30" as="geometry">
            <mxRectangle width="90" height="30" as="alternateBounds" />
          </mxGeometry>
        </mxCell>
        <mxCell id="LF_uzQrmGtcTdr1EB5Od-17" style="shape=partialRectangle;connectable=0;fillColor=none;top=0;left=0;bottom=0;right=0;align=center;spacingLeft=0;overflow=hidden;whiteSpace=wrap;html=1;fontSize=16;" vertex="1" parent="LF_uzQrmGtcTdr1EB5Od-9">
          <mxGeometry x="356" width="40" height="30" as="geometry">
            <mxRectangle width="40" height="30" as="alternateBounds" />
          </mxGeometry>
        </mxCell>
        <mxCell id="LF_uzQrmGtcTdr1EB5Od-21" style="shape=partialRectangle;connectable=0;fillColor=none;top=0;left=0;bottom=0;right=0;align=center;spacingLeft=0;overflow=hidden;whiteSpace=wrap;html=1;fontSize=16;" vertex="1" parent="LF_uzQrmGtcTdr1EB5Od-9">
          <mxGeometry x="396" width="40" height="30" as="geometry">
            <mxRectangle width="40" height="30" as="alternateBounds" />
          </mxGeometry>
        </mxCell>
        <mxCell id="LF_uzQrmGtcTdr1EB5Od-25" value="✅" style="shape=partialRectangle;connectable=0;fillColor=none;top=0;left=0;bottom=0;right=0;align=center;spacingLeft=0;overflow=hidden;whiteSpace=wrap;html=1;fontSize=16;" vertex="1" parent="LF_uzQrmGtcTdr1EB5Od-9">
          <mxGeometry x="436" width="40" height="30" as="geometry">
            <mxRectangle width="40" height="30" as="alternateBounds" />
          </mxGeometry>
        </mxCell>
        <mxCell id="LF_uzQrmGtcTdr1EB5Od-29" style="shape=partialRectangle;connectable=0;fillColor=none;top=0;left=0;bottom=0;right=0;align=center;spacingLeft=0;overflow=hidden;whiteSpace=wrap;html=1;fontSize=16;" vertex="1" parent="LF_uzQrmGtcTdr1EB5Od-9">
          <mxGeometry x="476" width="40" height="30" as="geometry">
            <mxRectangle width="40" height="30" as="alternateBounds" />
          </mxGeometry>
        </mxCell>
        <mxCell id="LF_uzQrmGtcTdr1EB5Od-33" style="shape=partialRectangle;connectable=0;fillColor=none;top=0;left=0;bottom=0;right=0;align=center;spacingLeft=0;overflow=hidden;whiteSpace=wrap;html=1;fontSize=16;" vertex="1" parent="LF_uzQrmGtcTdr1EB5Od-9">
          <mxGeometry x="516" width="40" height="30" as="geometry">
            <mxRectangle width="40" height="30" as="alternateBounds" />
          </mxGeometry>
        </mxCell>
        <mxCell id="LF_uzQrmGtcTdr1EB5Od-12" value="" style="shape=tableRow;horizontal=0;startSize=0;swimlaneHead=0;swimlaneBody=0;fillColor=none;collapsible=0;dropTarget=0;points=[[0,0.5],[1,0.5]];portConstraint=eastwest;top=0;left=0;right=0;bottom=0;" vertex="1" parent="LF_uzQrmGtcTdr1EB5Od-2">
          <mxGeometry y="120" width="556" height="30" as="geometry" />
        </mxCell>
        <mxCell id="LF_uzQrmGtcTdr1EB5Od-14" value="nummernschild" style="shape=partialRectangle;connectable=0;fillColor=none;top=0;left=0;bottom=0;right=0;align=left;spacingLeft=6;overflow=hidden;whiteSpace=wrap;html=1;" vertex="1" parent="LF_uzQrmGtcTdr1EB5Od-12">
          <mxGeometry width="266" height="30" as="geometry">
            <mxRectangle width="266" height="30" as="alternateBounds" />
          </mxGeometry>
        </mxCell>
        <mxCell id="LF_uzQrmGtcTdr1EB5Od-46" value="TEXT" style="shape=partialRectangle;connectable=0;fillColor=none;top=0;left=0;bottom=0;right=0;align=center;spacingLeft=0;overflow=hidden;whiteSpace=wrap;html=1;" vertex="1" parent="LF_uzQrmGtcTdr1EB5Od-12">
          <mxGeometry x="266" width="90" height="30" as="geometry">
            <mxRectangle width="90" height="30" as="alternateBounds" />
          </mxGeometry>
        </mxCell>
        <mxCell id="LF_uzQrmGtcTdr1EB5Od-18" style="shape=partialRectangle;connectable=0;fillColor=none;top=0;left=0;bottom=0;right=0;align=center;spacingLeft=0;overflow=hidden;whiteSpace=wrap;html=1;fontSize=16;" vertex="1" parent="LF_uzQrmGtcTdr1EB5Od-12">
          <mxGeometry x="356" width="40" height="30" as="geometry">
            <mxRectangle width="40" height="30" as="alternateBounds" />
          </mxGeometry>
        </mxCell>
        <mxCell id="LF_uzQrmGtcTdr1EB5Od-22" style="shape=partialRectangle;connectable=0;fillColor=none;top=0;left=0;bottom=0;right=0;align=center;spacingLeft=0;overflow=hidden;whiteSpace=wrap;html=1;fontSize=16;" vertex="1" parent="LF_uzQrmGtcTdr1EB5Od-12">
          <mxGeometry x="396" width="40" height="30" as="geometry">
            <mxRectangle width="40" height="30" as="alternateBounds" />
          </mxGeometry>
        </mxCell>
        <mxCell id="LF_uzQrmGtcTdr1EB5Od-26" value="✅" style="shape=partialRectangle;connectable=0;fillColor=none;top=0;left=0;bottom=0;right=0;align=center;spacingLeft=0;overflow=hidden;whiteSpace=wrap;html=1;fontSize=16;" vertex="1" parent="LF_uzQrmGtcTdr1EB5Od-12">
          <mxGeometry x="436" width="40" height="30" as="geometry">
            <mxRectangle width="40" height="30" as="alternateBounds" />
          </mxGeometry>
        </mxCell>
        <mxCell id="LF_uzQrmGtcTdr1EB5Od-30" style="shape=partialRectangle;connectable=0;fillColor=none;top=0;left=0;bottom=0;right=0;align=center;spacingLeft=0;overflow=hidden;whiteSpace=wrap;html=1;fontSize=16;" vertex="1" parent="LF_uzQrmGtcTdr1EB5Od-12">
          <mxGeometry x="476" width="40" height="30" as="geometry">
            <mxRectangle width="40" height="30" as="alternateBounds" />
          </mxGeometry>
        </mxCell>
        <mxCell id="LF_uzQrmGtcTdr1EB5Od-34" style="shape=partialRectangle;connectable=0;fillColor=none;top=0;left=0;bottom=0;right=0;align=center;spacingLeft=0;overflow=hidden;whiteSpace=wrap;html=1;fontSize=16;" vertex="1" parent="LF_uzQrmGtcTdr1EB5Od-12">
          <mxGeometry x="516" width="40" height="30" as="geometry">
            <mxRectangle width="40" height="30" as="alternateBounds" />
          </mxGeometry>
        </mxCell>
        <mxCell id="LF_uzQrmGtcTdr1EB5Od-126" style="shape=tableRow;horizontal=0;startSize=0;swimlaneHead=0;swimlaneBody=0;fillColor=none;collapsible=0;dropTarget=0;points=[[0,0.5],[1,0.5]];portConstraint=eastwest;top=0;left=0;right=0;bottom=0;" vertex="1" parent="LF_uzQrmGtcTdr1EB5Od-2">
          <mxGeometry y="150" width="556" height="30" as="geometry" />
        </mxCell>
        <mxCell id="LF_uzQrmGtcTdr1EB5Od-127" value="kilometerstand" style="shape=partialRectangle;connectable=0;fillColor=none;top=0;left=0;bottom=0;right=0;align=left;spacingLeft=6;overflow=hidden;whiteSpace=wrap;html=1;" vertex="1" parent="LF_uzQrmGtcTdr1EB5Od-126">
          <mxGeometry width="266" height="30" as="geometry">
            <mxRectangle width="266" height="30" as="alternateBounds" />
          </mxGeometry>
        </mxCell>
        <mxCell id="LF_uzQrmGtcTdr1EB5Od-128" value="INTEGER" style="shape=partialRectangle;connectable=0;fillColor=none;top=0;left=0;bottom=0;right=0;align=center;spacingLeft=0;overflow=hidden;whiteSpace=wrap;html=1;" vertex="1" parent="LF_uzQrmGtcTdr1EB5Od-126">
          <mxGeometry x="266" width="90" height="30" as="geometry">
            <mxRectangle width="90" height="30" as="alternateBounds" />
          </mxGeometry>
        </mxCell>
        <mxCell id="LF_uzQrmGtcTdr1EB5Od-129" style="shape=partialRectangle;connectable=0;fillColor=none;top=0;left=0;bottom=0;right=0;align=center;spacingLeft=0;overflow=hidden;whiteSpace=wrap;html=1;fontSize=16;" vertex="1" parent="LF_uzQrmGtcTdr1EB5Od-126">
          <mxGeometry x="356" width="40" height="30" as="geometry">
            <mxRectangle width="40" height="30" as="alternateBounds" />
          </mxGeometry>
        </mxCell>
        <mxCell id="LF_uzQrmGtcTdr1EB5Od-130" style="shape=partialRectangle;connectable=0;fillColor=none;top=0;left=0;bottom=0;right=0;align=center;spacingLeft=0;overflow=hidden;whiteSpace=wrap;html=1;fontSize=16;" vertex="1" parent="LF_uzQrmGtcTdr1EB5Od-126">
          <mxGeometry x="396" width="40" height="30" as="geometry">
            <mxRectangle width="40" height="30" as="alternateBounds" />
          </mxGeometry>
        </mxCell>
        <mxCell id="LF_uzQrmGtcTdr1EB5Od-131" style="shape=partialRectangle;connectable=0;fillColor=none;top=0;left=0;bottom=0;right=0;align=center;spacingLeft=0;overflow=hidden;whiteSpace=wrap;html=1;fontSize=16;" vertex="1" parent="LF_uzQrmGtcTdr1EB5Od-126">
          <mxGeometry x="436" width="40" height="30" as="geometry">
            <mxRectangle width="40" height="30" as="alternateBounds" />
          </mxGeometry>
        </mxCell>
        <mxCell id="LF_uzQrmGtcTdr1EB5Od-132" style="shape=partialRectangle;connectable=0;fillColor=none;top=0;left=0;bottom=0;right=0;align=center;spacingLeft=0;overflow=hidden;whiteSpace=wrap;html=1;fontSize=16;" vertex="1" parent="LF_uzQrmGtcTdr1EB5Od-126">
          <mxGeometry x="476" width="40" height="30" as="geometry">
            <mxRectangle width="40" height="30" as="alternateBounds" />
          </mxGeometry>
        </mxCell>
        <mxCell id="LF_uzQrmGtcTdr1EB5Od-133" style="shape=partialRectangle;connectable=0;fillColor=none;top=0;left=0;bottom=0;right=0;align=center;spacingLeft=0;overflow=hidden;whiteSpace=wrap;html=1;fontSize=16;" vertex="1" parent="LF_uzQrmGtcTdr1EB5Od-126">
          <mxGeometry x="516" width="40" height="30" as="geometry">
            <mxRectangle width="40" height="30" as="alternateBounds" />
          </mxGeometry>
        </mxCell>
        <mxCell id="LF_uzQrmGtcTdr1EB5Od-471" style="shape=tableRow;horizontal=0;startSize=0;swimlaneHead=0;swimlaneBody=0;fillColor=none;collapsible=0;dropTarget=0;points=[[0,0.5],[1,0.5]];portConstraint=eastwest;top=0;left=0;right=0;bottom=0;" vertex="1" parent="LF_uzQrmGtcTdr1EB5Od-2">
          <mxGeometry y="180" width="556" height="30" as="geometry" />
        </mxCell>
        <mxCell id="LF_uzQrmGtcTdr1EB5Od-472" value="beschreibung" style="shape=partialRectangle;connectable=0;fillColor=none;top=0;left=0;bottom=0;right=0;align=left;spacingLeft=6;overflow=hidden;whiteSpace=wrap;html=1;" vertex="1" parent="LF_uzQrmGtcTdr1EB5Od-471">
          <mxGeometry width="266" height="30" as="geometry">
            <mxRectangle width="266" height="30" as="alternateBounds" />
          </mxGeometry>
        </mxCell>
        <mxCell id="LF_uzQrmGtcTdr1EB5Od-473" value="TEXT" style="shape=partialRectangle;connectable=0;fillColor=none;top=0;left=0;bottom=0;right=0;align=center;spacingLeft=0;overflow=hidden;whiteSpace=wrap;html=1;" vertex="1" parent="LF_uzQrmGtcTdr1EB5Od-471">
          <mxGeometry x="266" width="90" height="30" as="geometry">
            <mxRectangle width="90" height="30" as="alternateBounds" />
          </mxGeometry>
        </mxCell>
        <mxCell id="LF_uzQrmGtcTdr1EB5Od-474" style="shape=partialRectangle;connectable=0;fillColor=none;top=0;left=0;bottom=0;right=0;align=center;spacingLeft=0;overflow=hidden;whiteSpace=wrap;html=1;fontSize=16;" vertex="1" parent="LF_uzQrmGtcTdr1EB5Od-471">
          <mxGeometry x="356" width="40" height="30" as="geometry">
            <mxRectangle width="40" height="30" as="alternateBounds" />
          </mxGeometry>
        </mxCell>
        <mxCell id="LF_uzQrmGtcTdr1EB5Od-475" style="shape=partialRectangle;connectable=0;fillColor=none;top=0;left=0;bottom=0;right=0;align=center;spacingLeft=0;overflow=hidden;whiteSpace=wrap;html=1;fontSize=16;" vertex="1" parent="LF_uzQrmGtcTdr1EB5Od-471">
          <mxGeometry x="396" width="40" height="30" as="geometry">
            <mxRectangle width="40" height="30" as="alternateBounds" />
          </mxGeometry>
        </mxCell>
        <mxCell id="LF_uzQrmGtcTdr1EB5Od-476" style="shape=partialRectangle;connectable=0;fillColor=none;top=0;left=0;bottom=0;right=0;align=center;spacingLeft=0;overflow=hidden;whiteSpace=wrap;html=1;fontSize=16;" vertex="1" parent="LF_uzQrmGtcTdr1EB5Od-471">
          <mxGeometry x="436" width="40" height="30" as="geometry">
            <mxRectangle width="40" height="30" as="alternateBounds" />
          </mxGeometry>
        </mxCell>
        <mxCell id="LF_uzQrmGtcTdr1EB5Od-477" style="shape=partialRectangle;connectable=0;fillColor=none;top=0;left=0;bottom=0;right=0;align=center;spacingLeft=0;overflow=hidden;whiteSpace=wrap;html=1;fontSize=16;" vertex="1" parent="LF_uzQrmGtcTdr1EB5Od-471">
          <mxGeometry x="476" width="40" height="30" as="geometry">
            <mxRectangle width="40" height="30" as="alternateBounds" />
          </mxGeometry>
        </mxCell>
        <mxCell id="LF_uzQrmGtcTdr1EB5Od-478" style="shape=partialRectangle;connectable=0;fillColor=none;top=0;left=0;bottom=0;right=0;align=center;spacingLeft=0;overflow=hidden;whiteSpace=wrap;html=1;fontSize=16;" vertex="1" parent="LF_uzQrmGtcTdr1EB5Od-471">
          <mxGeometry x="516" width="40" height="30" as="geometry">
            <mxRectangle width="40" height="30" as="alternateBounds" />
          </mxGeometry>
        </mxCell>
        <mxCell id="LF_uzQrmGtcTdr1EB5Od-47" style="shape=tableRow;horizontal=0;startSize=0;swimlaneHead=0;swimlaneBody=0;fillColor=none;collapsible=0;dropTarget=0;points=[[0,0.5],[1,0.5]];portConstraint=eastwest;top=0;left=0;right=0;bottom=0;" vertex="1" parent="LF_uzQrmGtcTdr1EB5Od-2">
          <mxGeometry y="210" width="556" height="30" as="geometry" />
        </mxCell>
        <mxCell id="LF_uzQrmGtcTdr1EB5Od-48" value="marke_id" style="shape=partialRectangle;connectable=0;fillColor=none;top=0;left=0;bottom=0;right=0;align=left;spacingLeft=6;overflow=hidden;whiteSpace=wrap;html=1;" vertex="1" parent="LF_uzQrmGtcTdr1EB5Od-47">
          <mxGeometry width="266" height="30" as="geometry">
            <mxRectangle width="266" height="30" as="alternateBounds" />
          </mxGeometry>
        </mxCell>
        <mxCell id="LF_uzQrmGtcTdr1EB5Od-49" value="INTEGER" style="shape=partialRectangle;connectable=0;fillColor=none;top=0;left=0;bottom=0;right=0;align=center;spacingLeft=0;overflow=hidden;whiteSpace=wrap;html=1;" vertex="1" parent="LF_uzQrmGtcTdr1EB5Od-47">
          <mxGeometry x="266" width="90" height="30" as="geometry">
            <mxRectangle width="90" height="30" as="alternateBounds" />
          </mxGeometry>
        </mxCell>
        <mxCell id="LF_uzQrmGtcTdr1EB5Od-50" style="shape=partialRectangle;connectable=0;fillColor=none;top=0;left=0;bottom=0;right=0;align=center;spacingLeft=0;overflow=hidden;whiteSpace=wrap;html=1;fontSize=16;" vertex="1" parent="LF_uzQrmGtcTdr1EB5Od-47">
          <mxGeometry x="356" width="40" height="30" as="geometry">
            <mxRectangle width="40" height="30" as="alternateBounds" />
          </mxGeometry>
        </mxCell>
        <mxCell id="LF_uzQrmGtcTdr1EB5Od-51" value="✅" style="shape=partialRectangle;connectable=0;fillColor=none;top=0;left=0;bottom=0;right=0;align=center;spacingLeft=0;overflow=hidden;whiteSpace=wrap;html=1;fontSize=16;" vertex="1" parent="LF_uzQrmGtcTdr1EB5Od-47">
          <mxGeometry x="396" width="40" height="30" as="geometry">
            <mxRectangle width="40" height="30" as="alternateBounds" />
          </mxGeometry>
        </mxCell>
        <mxCell id="LF_uzQrmGtcTdr1EB5Od-52" style="shape=partialRectangle;connectable=0;fillColor=none;top=0;left=0;bottom=0;right=0;align=center;spacingLeft=0;overflow=hidden;whiteSpace=wrap;html=1;fontSize=16;" vertex="1" parent="LF_uzQrmGtcTdr1EB5Od-47">
          <mxGeometry x="436" width="40" height="30" as="geometry">
            <mxRectangle width="40" height="30" as="alternateBounds" />
          </mxGeometry>
        </mxCell>
        <mxCell id="LF_uzQrmGtcTdr1EB5Od-53" style="shape=partialRectangle;connectable=0;fillColor=none;top=0;left=0;bottom=0;right=0;align=center;spacingLeft=0;overflow=hidden;whiteSpace=wrap;html=1;fontSize=16;" vertex="1" parent="LF_uzQrmGtcTdr1EB5Od-47">
          <mxGeometry x="476" width="40" height="30" as="geometry">
            <mxRectangle width="40" height="30" as="alternateBounds" />
          </mxGeometry>
        </mxCell>
        <mxCell id="LF_uzQrmGtcTdr1EB5Od-54" style="shape=partialRectangle;connectable=0;fillColor=none;top=0;left=0;bottom=0;right=0;align=center;spacingLeft=0;overflow=hidden;whiteSpace=wrap;html=1;fontSize=16;" vertex="1" parent="LF_uzQrmGtcTdr1EB5Od-47">
          <mxGeometry x="516" width="40" height="30" as="geometry">
            <mxRectangle width="40" height="30" as="alternateBounds" />
          </mxGeometry>
        </mxCell>
        <mxCell id="LF_uzQrmGtcTdr1EB5Od-55" style="shape=tableRow;horizontal=0;startSize=0;swimlaneHead=0;swimlaneBody=0;fillColor=none;collapsible=0;dropTarget=0;points=[[0,0.5],[1,0.5]];portConstraint=eastwest;top=0;left=0;right=0;bottom=0;" vertex="1" parent="LF_uzQrmGtcTdr1EB5Od-2">
          <mxGeometry y="240" width="556" height="30" as="geometry" />
        </mxCell>
        <mxCell id="LF_uzQrmGtcTdr1EB5Od-56" value="model_id" style="shape=partialRectangle;connectable=0;fillColor=none;top=0;left=0;bottom=0;right=0;align=left;spacingLeft=6;overflow=hidden;whiteSpace=wrap;html=1;" vertex="1" parent="LF_uzQrmGtcTdr1EB5Od-55">
          <mxGeometry width="266" height="30" as="geometry">
            <mxRectangle width="266" height="30" as="alternateBounds" />
          </mxGeometry>
        </mxCell>
        <mxCell id="LF_uzQrmGtcTdr1EB5Od-57" value="INTEGER" style="shape=partialRectangle;connectable=0;fillColor=none;top=0;left=0;bottom=0;right=0;align=center;spacingLeft=0;overflow=hidden;whiteSpace=wrap;html=1;" vertex="1" parent="LF_uzQrmGtcTdr1EB5Od-55">
          <mxGeometry x="266" width="90" height="30" as="geometry">
            <mxRectangle width="90" height="30" as="alternateBounds" />
          </mxGeometry>
        </mxCell>
        <mxCell id="LF_uzQrmGtcTdr1EB5Od-58" style="shape=partialRectangle;connectable=0;fillColor=none;top=0;left=0;bottom=0;right=0;align=center;spacingLeft=0;overflow=hidden;whiteSpace=wrap;html=1;fontSize=16;" vertex="1" parent="LF_uzQrmGtcTdr1EB5Od-55">
          <mxGeometry x="356" width="40" height="30" as="geometry">
            <mxRectangle width="40" height="30" as="alternateBounds" />
          </mxGeometry>
        </mxCell>
        <mxCell id="LF_uzQrmGtcTdr1EB5Od-59" value="✅" style="shape=partialRectangle;connectable=0;fillColor=none;top=0;left=0;bottom=0;right=0;align=center;spacingLeft=0;overflow=hidden;whiteSpace=wrap;html=1;fontSize=16;" vertex="1" parent="LF_uzQrmGtcTdr1EB5Od-55">
          <mxGeometry x="396" width="40" height="30" as="geometry">
            <mxRectangle width="40" height="30" as="alternateBounds" />
          </mxGeometry>
        </mxCell>
        <mxCell id="LF_uzQrmGtcTdr1EB5Od-60" style="shape=partialRectangle;connectable=0;fillColor=none;top=0;left=0;bottom=0;right=0;align=center;spacingLeft=0;overflow=hidden;whiteSpace=wrap;html=1;fontSize=16;" vertex="1" parent="LF_uzQrmGtcTdr1EB5Od-55">
          <mxGeometry x="436" width="40" height="30" as="geometry">
            <mxRectangle width="40" height="30" as="alternateBounds" />
          </mxGeometry>
        </mxCell>
        <mxCell id="LF_uzQrmGtcTdr1EB5Od-61" style="shape=partialRectangle;connectable=0;fillColor=none;top=0;left=0;bottom=0;right=0;align=center;spacingLeft=0;overflow=hidden;whiteSpace=wrap;html=1;fontSize=16;" vertex="1" parent="LF_uzQrmGtcTdr1EB5Od-55">
          <mxGeometry x="476" width="40" height="30" as="geometry">
            <mxRectangle width="40" height="30" as="alternateBounds" />
          </mxGeometry>
        </mxCell>
        <mxCell id="LF_uzQrmGtcTdr1EB5Od-62" style="shape=partialRectangle;connectable=0;fillColor=none;top=0;left=0;bottom=0;right=0;align=center;spacingLeft=0;overflow=hidden;whiteSpace=wrap;html=1;fontSize=16;" vertex="1" parent="LF_uzQrmGtcTdr1EB5Od-55">
          <mxGeometry x="516" width="40" height="30" as="geometry">
            <mxRectangle width="40" height="30" as="alternateBounds" />
          </mxGeometry>
        </mxCell>
        <mxCell id="LF_uzQrmGtcTdr1EB5Od-63" style="shape=tableRow;horizontal=0;startSize=0;swimlaneHead=0;swimlaneBody=0;fillColor=none;collapsible=0;dropTarget=0;points=[[0,0.5],[1,0.5]];portConstraint=eastwest;top=0;left=0;right=0;bottom=0;" vertex="1" parent="LF_uzQrmGtcTdr1EB5Od-2">
          <mxGeometry y="270" width="556" height="30" as="geometry" />
        </mxCell>
        <mxCell id="LF_uzQrmGtcTdr1EB5Od-64" value="kraftstoff_id" style="shape=partialRectangle;connectable=0;fillColor=none;top=0;left=0;bottom=0;right=0;align=left;spacingLeft=6;overflow=hidden;whiteSpace=wrap;html=1;" vertex="1" parent="LF_uzQrmGtcTdr1EB5Od-63">
          <mxGeometry width="266" height="30" as="geometry">
            <mxRectangle width="266" height="30" as="alternateBounds" />
          </mxGeometry>
        </mxCell>
        <mxCell id="LF_uzQrmGtcTdr1EB5Od-65" value="INTEGER" style="shape=partialRectangle;connectable=0;fillColor=none;top=0;left=0;bottom=0;right=0;align=center;spacingLeft=0;overflow=hidden;whiteSpace=wrap;html=1;" vertex="1" parent="LF_uzQrmGtcTdr1EB5Od-63">
          <mxGeometry x="266" width="90" height="30" as="geometry">
            <mxRectangle width="90" height="30" as="alternateBounds" />
          </mxGeometry>
        </mxCell>
        <mxCell id="LF_uzQrmGtcTdr1EB5Od-66" style="shape=partialRectangle;connectable=0;fillColor=none;top=0;left=0;bottom=0;right=0;align=center;spacingLeft=0;overflow=hidden;whiteSpace=wrap;html=1;fontSize=16;" vertex="1" parent="LF_uzQrmGtcTdr1EB5Od-63">
          <mxGeometry x="356" width="40" height="30" as="geometry">
            <mxRectangle width="40" height="30" as="alternateBounds" />
          </mxGeometry>
        </mxCell>
        <mxCell id="LF_uzQrmGtcTdr1EB5Od-67" value="✅" style="shape=partialRectangle;connectable=0;fillColor=none;top=0;left=0;bottom=0;right=0;align=center;spacingLeft=0;overflow=hidden;whiteSpace=wrap;html=1;fontSize=16;" vertex="1" parent="LF_uzQrmGtcTdr1EB5Od-63">
          <mxGeometry x="396" width="40" height="30" as="geometry">
            <mxRectangle width="40" height="30" as="alternateBounds" />
          </mxGeometry>
        </mxCell>
        <mxCell id="LF_uzQrmGtcTdr1EB5Od-68" style="shape=partialRectangle;connectable=0;fillColor=none;top=0;left=0;bottom=0;right=0;align=center;spacingLeft=0;overflow=hidden;whiteSpace=wrap;html=1;fontSize=16;" vertex="1" parent="LF_uzQrmGtcTdr1EB5Od-63">
          <mxGeometry x="436" width="40" height="30" as="geometry">
            <mxRectangle width="40" height="30" as="alternateBounds" />
          </mxGeometry>
        </mxCell>
        <mxCell id="LF_uzQrmGtcTdr1EB5Od-69" style="shape=partialRectangle;connectable=0;fillColor=none;top=0;left=0;bottom=0;right=0;align=center;spacingLeft=0;overflow=hidden;whiteSpace=wrap;html=1;fontSize=16;" vertex="1" parent="LF_uzQrmGtcTdr1EB5Od-63">
          <mxGeometry x="476" width="40" height="30" as="geometry">
            <mxRectangle width="40" height="30" as="alternateBounds" />
          </mxGeometry>
        </mxCell>
        <mxCell id="LF_uzQrmGtcTdr1EB5Od-70" style="shape=partialRectangle;connectable=0;fillColor=none;top=0;left=0;bottom=0;right=0;align=center;spacingLeft=0;overflow=hidden;whiteSpace=wrap;html=1;fontSize=16;" vertex="1" parent="LF_uzQrmGtcTdr1EB5Od-63">
          <mxGeometry x="516" width="40" height="30" as="geometry">
            <mxRectangle width="40" height="30" as="alternateBounds" />
          </mxGeometry>
        </mxCell>
        <mxCell id="LF_uzQrmGtcTdr1EB5Od-71" style="shape=tableRow;horizontal=0;startSize=0;swimlaneHead=0;swimlaneBody=0;fillColor=none;collapsible=0;dropTarget=0;points=[[0,0.5],[1,0.5]];portConstraint=eastwest;top=0;left=0;right=0;bottom=0;" vertex="1" parent="LF_uzQrmGtcTdr1EB5Od-2">
          <mxGeometry y="300" width="556" height="30" as="geometry" />
        </mxCell>
        <mxCell id="LF_uzQrmGtcTdr1EB5Od-72" value="getriebe_id" style="shape=partialRectangle;connectable=0;fillColor=none;top=0;left=0;bottom=0;right=0;align=left;spacingLeft=6;overflow=hidden;whiteSpace=wrap;html=1;" vertex="1" parent="LF_uzQrmGtcTdr1EB5Od-71">
          <mxGeometry width="266" height="30" as="geometry">
            <mxRectangle width="266" height="30" as="alternateBounds" />
          </mxGeometry>
        </mxCell>
        <mxCell id="LF_uzQrmGtcTdr1EB5Od-73" value="INTEGER" style="shape=partialRectangle;connectable=0;fillColor=none;top=0;left=0;bottom=0;right=0;align=center;spacingLeft=0;overflow=hidden;whiteSpace=wrap;html=1;" vertex="1" parent="LF_uzQrmGtcTdr1EB5Od-71">
          <mxGeometry x="266" width="90" height="30" as="geometry">
            <mxRectangle width="90" height="30" as="alternateBounds" />
          </mxGeometry>
        </mxCell>
        <mxCell id="LF_uzQrmGtcTdr1EB5Od-74" style="shape=partialRectangle;connectable=0;fillColor=none;top=0;left=0;bottom=0;right=0;align=center;spacingLeft=0;overflow=hidden;whiteSpace=wrap;html=1;fontSize=16;" vertex="1" parent="LF_uzQrmGtcTdr1EB5Od-71">
          <mxGeometry x="356" width="40" height="30" as="geometry">
            <mxRectangle width="40" height="30" as="alternateBounds" />
          </mxGeometry>
        </mxCell>
        <mxCell id="LF_uzQrmGtcTdr1EB5Od-75" value="✅" style="shape=partialRectangle;connectable=0;fillColor=none;top=0;left=0;bottom=0;right=0;align=center;spacingLeft=0;overflow=hidden;whiteSpace=wrap;html=1;fontSize=16;" vertex="1" parent="LF_uzQrmGtcTdr1EB5Od-71">
          <mxGeometry x="396" width="40" height="30" as="geometry">
            <mxRectangle width="40" height="30" as="alternateBounds" />
          </mxGeometry>
        </mxCell>
        <mxCell id="LF_uzQrmGtcTdr1EB5Od-76" style="shape=partialRectangle;connectable=0;fillColor=none;top=0;left=0;bottom=0;right=0;align=center;spacingLeft=0;overflow=hidden;whiteSpace=wrap;html=1;fontSize=16;" vertex="1" parent="LF_uzQrmGtcTdr1EB5Od-71">
          <mxGeometry x="436" width="40" height="30" as="geometry">
            <mxRectangle width="40" height="30" as="alternateBounds" />
          </mxGeometry>
        </mxCell>
        <mxCell id="LF_uzQrmGtcTdr1EB5Od-77" style="shape=partialRectangle;connectable=0;fillColor=none;top=0;left=0;bottom=0;right=0;align=center;spacingLeft=0;overflow=hidden;whiteSpace=wrap;html=1;fontSize=16;" vertex="1" parent="LF_uzQrmGtcTdr1EB5Od-71">
          <mxGeometry x="476" width="40" height="30" as="geometry">
            <mxRectangle width="40" height="30" as="alternateBounds" />
          </mxGeometry>
        </mxCell>
        <mxCell id="LF_uzQrmGtcTdr1EB5Od-78" style="shape=partialRectangle;connectable=0;fillColor=none;top=0;left=0;bottom=0;right=0;align=center;spacingLeft=0;overflow=hidden;whiteSpace=wrap;html=1;fontSize=16;" vertex="1" parent="LF_uzQrmGtcTdr1EB5Od-71">
          <mxGeometry x="516" width="40" height="30" as="geometry">
            <mxRectangle width="40" height="30" as="alternateBounds" />
          </mxGeometry>
        </mxCell>
        <mxCell id="LF_uzQrmGtcTdr1EB5Od-79" style="shape=tableRow;horizontal=0;startSize=0;swimlaneHead=0;swimlaneBody=0;fillColor=none;collapsible=0;dropTarget=0;points=[[0,0.5],[1,0.5]];portConstraint=eastwest;top=0;left=0;right=0;bottom=0;" vertex="1" parent="LF_uzQrmGtcTdr1EB5Od-2">
          <mxGeometry y="330" width="556" height="30" as="geometry" />
        </mxCell>
        <mxCell id="LF_uzQrmGtcTdr1EB5Od-80" value="standort_id" style="shape=partialRectangle;connectable=0;fillColor=none;top=0;left=0;bottom=0;right=0;align=left;spacingLeft=6;overflow=hidden;whiteSpace=wrap;html=1;" vertex="1" parent="LF_uzQrmGtcTdr1EB5Od-79">
          <mxGeometry width="266" height="30" as="geometry">
            <mxRectangle width="266" height="30" as="alternateBounds" />
          </mxGeometry>
        </mxCell>
        <mxCell id="LF_uzQrmGtcTdr1EB5Od-81" value="INTEGER" style="shape=partialRectangle;connectable=0;fillColor=none;top=0;left=0;bottom=0;right=0;align=center;spacingLeft=0;overflow=hidden;whiteSpace=wrap;html=1;" vertex="1" parent="LF_uzQrmGtcTdr1EB5Od-79">
          <mxGeometry x="266" width="90" height="30" as="geometry">
            <mxRectangle width="90" height="30" as="alternateBounds" />
          </mxGeometry>
        </mxCell>
        <mxCell id="LF_uzQrmGtcTdr1EB5Od-82" style="shape=partialRectangle;connectable=0;fillColor=none;top=0;left=0;bottom=0;right=0;align=center;spacingLeft=0;overflow=hidden;whiteSpace=wrap;html=1;fontSize=16;" vertex="1" parent="LF_uzQrmGtcTdr1EB5Od-79">
          <mxGeometry x="356" width="40" height="30" as="geometry">
            <mxRectangle width="40" height="30" as="alternateBounds" />
          </mxGeometry>
        </mxCell>
        <mxCell id="LF_uzQrmGtcTdr1EB5Od-83" value="✅" style="shape=partialRectangle;connectable=0;fillColor=none;top=0;left=0;bottom=0;right=0;align=center;spacingLeft=0;overflow=hidden;whiteSpace=wrap;html=1;fontSize=16;" vertex="1" parent="LF_uzQrmGtcTdr1EB5Od-79">
          <mxGeometry x="396" width="40" height="30" as="geometry">
            <mxRectangle width="40" height="30" as="alternateBounds" />
          </mxGeometry>
        </mxCell>
        <mxCell id="LF_uzQrmGtcTdr1EB5Od-84" style="shape=partialRectangle;connectable=0;fillColor=none;top=0;left=0;bottom=0;right=0;align=center;spacingLeft=0;overflow=hidden;whiteSpace=wrap;html=1;fontSize=16;" vertex="1" parent="LF_uzQrmGtcTdr1EB5Od-79">
          <mxGeometry x="436" width="40" height="30" as="geometry">
            <mxRectangle width="40" height="30" as="alternateBounds" />
          </mxGeometry>
        </mxCell>
        <mxCell id="LF_uzQrmGtcTdr1EB5Od-85" style="shape=partialRectangle;connectable=0;fillColor=none;top=0;left=0;bottom=0;right=0;align=center;spacingLeft=0;overflow=hidden;whiteSpace=wrap;html=1;fontSize=16;" vertex="1" parent="LF_uzQrmGtcTdr1EB5Od-79">
          <mxGeometry x="476" width="40" height="30" as="geometry">
            <mxRectangle width="40" height="30" as="alternateBounds" />
          </mxGeometry>
        </mxCell>
        <mxCell id="LF_uzQrmGtcTdr1EB5Od-86" style="shape=partialRectangle;connectable=0;fillColor=none;top=0;left=0;bottom=0;right=0;align=center;spacingLeft=0;overflow=hidden;whiteSpace=wrap;html=1;fontSize=16;" vertex="1" parent="LF_uzQrmGtcTdr1EB5Od-79">
          <mxGeometry x="516" width="40" height="30" as="geometry">
            <mxRectangle width="40" height="30" as="alternateBounds" />
          </mxGeometry>
        </mxCell>
        <mxCell id="LF_uzQrmGtcTdr1EB5Od-87" style="shape=tableRow;horizontal=0;startSize=0;swimlaneHead=0;swimlaneBody=0;fillColor=none;collapsible=0;dropTarget=0;points=[[0,0.5],[1,0.5]];portConstraint=eastwest;top=0;left=0;right=0;bottom=0;" vertex="1" parent="LF_uzQrmGtcTdr1EB5Od-2">
          <mxGeometry y="360" width="556" height="30" as="geometry" />
        </mxCell>
        <mxCell id="LF_uzQrmGtcTdr1EB5Od-88" value="fahrer_id" style="shape=partialRectangle;connectable=0;fillColor=none;top=0;left=0;bottom=0;right=0;align=left;spacingLeft=6;overflow=hidden;whiteSpace=wrap;html=1;" vertex="1" parent="LF_uzQrmGtcTdr1EB5Od-87">
          <mxGeometry width="266" height="30" as="geometry">
            <mxRectangle width="266" height="30" as="alternateBounds" />
          </mxGeometry>
        </mxCell>
        <mxCell id="LF_uzQrmGtcTdr1EB5Od-89" value="INTEGER" style="shape=partialRectangle;connectable=0;fillColor=none;top=0;left=0;bottom=0;right=0;align=center;spacingLeft=0;overflow=hidden;whiteSpace=wrap;html=1;" vertex="1" parent="LF_uzQrmGtcTdr1EB5Od-87">
          <mxGeometry x="266" width="90" height="30" as="geometry">
            <mxRectangle width="90" height="30" as="alternateBounds" />
          </mxGeometry>
        </mxCell>
        <mxCell id="LF_uzQrmGtcTdr1EB5Od-90" style="shape=partialRectangle;connectable=0;fillColor=none;top=0;left=0;bottom=0;right=0;align=center;spacingLeft=0;overflow=hidden;whiteSpace=wrap;html=1;fontSize=16;" vertex="1" parent="LF_uzQrmGtcTdr1EB5Od-87">
          <mxGeometry x="356" width="40" height="30" as="geometry">
            <mxRectangle width="40" height="30" as="alternateBounds" />
          </mxGeometry>
        </mxCell>
        <mxCell id="LF_uzQrmGtcTdr1EB5Od-91" value="✅" style="shape=partialRectangle;connectable=0;fillColor=none;top=0;left=0;bottom=0;right=0;align=center;spacingLeft=0;overflow=hidden;whiteSpace=wrap;html=1;fontSize=16;" vertex="1" parent="LF_uzQrmGtcTdr1EB5Od-87">
          <mxGeometry x="396" width="40" height="30" as="geometry">
            <mxRectangle width="40" height="30" as="alternateBounds" />
          </mxGeometry>
        </mxCell>
        <mxCell id="LF_uzQrmGtcTdr1EB5Od-92" style="shape=partialRectangle;connectable=0;fillColor=none;top=0;left=0;bottom=0;right=0;align=center;spacingLeft=0;overflow=hidden;whiteSpace=wrap;html=1;fontSize=16;" vertex="1" parent="LF_uzQrmGtcTdr1EB5Od-87">
          <mxGeometry x="436" width="40" height="30" as="geometry">
            <mxRectangle width="40" height="30" as="alternateBounds" />
          </mxGeometry>
        </mxCell>
        <mxCell id="LF_uzQrmGtcTdr1EB5Od-93" style="shape=partialRectangle;connectable=0;fillColor=none;top=0;left=0;bottom=0;right=0;align=center;spacingLeft=0;overflow=hidden;whiteSpace=wrap;html=1;fontSize=16;" vertex="1" parent="LF_uzQrmGtcTdr1EB5Od-87">
          <mxGeometry x="476" width="40" height="30" as="geometry">
            <mxRectangle width="40" height="30" as="alternateBounds" />
          </mxGeometry>
        </mxCell>
        <mxCell id="LF_uzQrmGtcTdr1EB5Od-94" style="shape=partialRectangle;connectable=0;fillColor=none;top=0;left=0;bottom=0;right=0;align=center;spacingLeft=0;overflow=hidden;whiteSpace=wrap;html=1;fontSize=16;" vertex="1" parent="LF_uzQrmGtcTdr1EB5Od-87">
          <mxGeometry x="516" width="40" height="30" as="geometry">
            <mxRectangle width="40" height="30" as="alternateBounds" />
          </mxGeometry>
        </mxCell>
        <mxCell id="LF_uzQrmGtcTdr1EB5Od-102" style="shape=tableRow;horizontal=0;startSize=0;swimlaneHead=0;swimlaneBody=0;fillColor=none;collapsible=0;dropTarget=0;points=[[0,0.5],[1,0.5]];portConstraint=eastwest;top=0;left=0;right=0;bottom=0;" vertex="1" parent="LF_uzQrmGtcTdr1EB5Od-2">
          <mxGeometry y="390" width="556" height="30" as="geometry" />
        </mxCell>
        <mxCell id="LF_uzQrmGtcTdr1EB5Od-103" value="typ_id" style="shape=partialRectangle;connectable=0;fillColor=none;top=0;left=0;bottom=0;right=0;align=left;spacingLeft=6;overflow=hidden;whiteSpace=wrap;html=1;" vertex="1" parent="LF_uzQrmGtcTdr1EB5Od-102">
          <mxGeometry width="266" height="30" as="geometry">
            <mxRectangle width="266" height="30" as="alternateBounds" />
          </mxGeometry>
        </mxCell>
        <mxCell id="LF_uzQrmGtcTdr1EB5Od-104" value="INTEGER" style="shape=partialRectangle;connectable=0;fillColor=none;top=0;left=0;bottom=0;right=0;align=center;spacingLeft=0;overflow=hidden;whiteSpace=wrap;html=1;" vertex="1" parent="LF_uzQrmGtcTdr1EB5Od-102">
          <mxGeometry x="266" width="90" height="30" as="geometry">
            <mxRectangle width="90" height="30" as="alternateBounds" />
          </mxGeometry>
        </mxCell>
        <mxCell id="LF_uzQrmGtcTdr1EB5Od-105" style="shape=partialRectangle;connectable=0;fillColor=none;top=0;left=0;bottom=0;right=0;align=center;spacingLeft=0;overflow=hidden;whiteSpace=wrap;html=1;fontSize=16;" vertex="1" parent="LF_uzQrmGtcTdr1EB5Od-102">
          <mxGeometry x="356" width="40" height="30" as="geometry">
            <mxRectangle width="40" height="30" as="alternateBounds" />
          </mxGeometry>
        </mxCell>
        <mxCell id="LF_uzQrmGtcTdr1EB5Od-106" value="✅" style="shape=partialRectangle;connectable=0;fillColor=none;top=0;left=0;bottom=0;right=0;align=center;spacingLeft=0;overflow=hidden;whiteSpace=wrap;html=1;fontSize=16;" vertex="1" parent="LF_uzQrmGtcTdr1EB5Od-102">
          <mxGeometry x="396" width="40" height="30" as="geometry">
            <mxRectangle width="40" height="30" as="alternateBounds" />
          </mxGeometry>
        </mxCell>
        <mxCell id="LF_uzQrmGtcTdr1EB5Od-107" style="shape=partialRectangle;connectable=0;fillColor=none;top=0;left=0;bottom=0;right=0;align=center;spacingLeft=0;overflow=hidden;whiteSpace=wrap;html=1;fontSize=16;" vertex="1" parent="LF_uzQrmGtcTdr1EB5Od-102">
          <mxGeometry x="436" width="40" height="30" as="geometry">
            <mxRectangle width="40" height="30" as="alternateBounds" />
          </mxGeometry>
        </mxCell>
        <mxCell id="LF_uzQrmGtcTdr1EB5Od-108" style="shape=partialRectangle;connectable=0;fillColor=none;top=0;left=0;bottom=0;right=0;align=center;spacingLeft=0;overflow=hidden;whiteSpace=wrap;html=1;fontSize=16;" vertex="1" parent="LF_uzQrmGtcTdr1EB5Od-102">
          <mxGeometry x="476" width="40" height="30" as="geometry">
            <mxRectangle width="40" height="30" as="alternateBounds" />
          </mxGeometry>
        </mxCell>
        <mxCell id="LF_uzQrmGtcTdr1EB5Od-109" style="shape=partialRectangle;connectable=0;fillColor=none;top=0;left=0;bottom=0;right=0;align=center;spacingLeft=0;overflow=hidden;whiteSpace=wrap;html=1;fontSize=16;" vertex="1" parent="LF_uzQrmGtcTdr1EB5Od-102">
          <mxGeometry x="516" width="40" height="30" as="geometry">
            <mxRectangle width="40" height="30" as="alternateBounds" />
          </mxGeometry>
        </mxCell>
        <mxCell id="LF_uzQrmGtcTdr1EB5Od-110" style="shape=tableRow;horizontal=0;startSize=0;swimlaneHead=0;swimlaneBody=0;fillColor=none;collapsible=0;dropTarget=0;points=[[0,0.5],[1,0.5]];portConstraint=eastwest;top=0;left=0;right=0;bottom=0;" vertex="1" parent="LF_uzQrmGtcTdr1EB5Od-2">
          <mxGeometry y="420" width="556" height="30" as="geometry" />
        </mxCell>
        <mxCell id="LF_uzQrmGtcTdr1EB5Od-111" value="status_id" style="shape=partialRectangle;connectable=0;fillColor=none;top=0;left=0;bottom=0;right=0;align=left;spacingLeft=6;overflow=hidden;whiteSpace=wrap;html=1;" vertex="1" parent="LF_uzQrmGtcTdr1EB5Od-110">
          <mxGeometry width="266" height="30" as="geometry">
            <mxRectangle width="266" height="30" as="alternateBounds" />
          </mxGeometry>
        </mxCell>
        <mxCell id="LF_uzQrmGtcTdr1EB5Od-112" value="INTEGER" style="shape=partialRectangle;connectable=0;fillColor=none;top=0;left=0;bottom=0;right=0;align=center;spacingLeft=0;overflow=hidden;whiteSpace=wrap;html=1;" vertex="1" parent="LF_uzQrmGtcTdr1EB5Od-110">
          <mxGeometry x="266" width="90" height="30" as="geometry">
            <mxRectangle width="90" height="30" as="alternateBounds" />
          </mxGeometry>
        </mxCell>
        <mxCell id="LF_uzQrmGtcTdr1EB5Od-113" style="shape=partialRectangle;connectable=0;fillColor=none;top=0;left=0;bottom=0;right=0;align=center;spacingLeft=0;overflow=hidden;whiteSpace=wrap;html=1;fontSize=16;" vertex="1" parent="LF_uzQrmGtcTdr1EB5Od-110">
          <mxGeometry x="356" width="40" height="30" as="geometry">
            <mxRectangle width="40" height="30" as="alternateBounds" />
          </mxGeometry>
        </mxCell>
        <mxCell id="LF_uzQrmGtcTdr1EB5Od-114" value="✅" style="shape=partialRectangle;connectable=0;fillColor=none;top=0;left=0;bottom=0;right=0;align=center;spacingLeft=0;overflow=hidden;whiteSpace=wrap;html=1;fontSize=16;" vertex="1" parent="LF_uzQrmGtcTdr1EB5Od-110">
          <mxGeometry x="396" width="40" height="30" as="geometry">
            <mxRectangle width="40" height="30" as="alternateBounds" />
          </mxGeometry>
        </mxCell>
        <mxCell id="LF_uzQrmGtcTdr1EB5Od-115" style="shape=partialRectangle;connectable=0;fillColor=none;top=0;left=0;bottom=0;right=0;align=center;spacingLeft=0;overflow=hidden;whiteSpace=wrap;html=1;fontSize=16;" vertex="1" parent="LF_uzQrmGtcTdr1EB5Od-110">
          <mxGeometry x="436" width="40" height="30" as="geometry">
            <mxRectangle width="40" height="30" as="alternateBounds" />
          </mxGeometry>
        </mxCell>
        <mxCell id="LF_uzQrmGtcTdr1EB5Od-116" style="shape=partialRectangle;connectable=0;fillColor=none;top=0;left=0;bottom=0;right=0;align=center;spacingLeft=0;overflow=hidden;whiteSpace=wrap;html=1;fontSize=16;" vertex="1" parent="LF_uzQrmGtcTdr1EB5Od-110">
          <mxGeometry x="476" width="40" height="30" as="geometry">
            <mxRectangle width="40" height="30" as="alternateBounds" />
          </mxGeometry>
        </mxCell>
        <mxCell id="LF_uzQrmGtcTdr1EB5Od-117" style="shape=partialRectangle;connectable=0;fillColor=none;top=0;left=0;bottom=0;right=0;align=center;spacingLeft=0;overflow=hidden;whiteSpace=wrap;html=1;fontSize=16;" vertex="1" parent="LF_uzQrmGtcTdr1EB5Od-110">
          <mxGeometry x="516" width="40" height="30" as="geometry">
            <mxRectangle width="40" height="30" as="alternateBounds" />
          </mxGeometry>
        </mxCell>
        <mxCell id="LF_uzQrmGtcTdr1EB5Od-118" style="shape=tableRow;horizontal=0;startSize=0;swimlaneHead=0;swimlaneBody=0;fillColor=none;collapsible=0;dropTarget=0;points=[[0,0.5],[1,0.5]];portConstraint=eastwest;top=0;left=0;right=0;bottom=0;" vertex="1" parent="LF_uzQrmGtcTdr1EB5Od-2">
          <mxGeometry y="450" width="556" height="30" as="geometry" />
        </mxCell>
        <mxCell id="LF_uzQrmGtcTdr1EB5Od-119" style="shape=partialRectangle;connectable=0;fillColor=none;top=0;left=0;bottom=0;right=0;align=left;spacingLeft=6;overflow=hidden;whiteSpace=wrap;html=1;" vertex="1" parent="LF_uzQrmGtcTdr1EB5Od-118">
          <mxGeometry width="266" height="30" as="geometry">
            <mxRectangle width="266" height="30" as="alternateBounds" />
          </mxGeometry>
        </mxCell>
        <mxCell id="LF_uzQrmGtcTdr1EB5Od-120" style="shape=partialRectangle;connectable=0;fillColor=none;top=0;left=0;bottom=0;right=0;align=center;spacingLeft=0;overflow=hidden;whiteSpace=wrap;html=1;" vertex="1" parent="LF_uzQrmGtcTdr1EB5Od-118">
          <mxGeometry x="266" width="90" height="30" as="geometry">
            <mxRectangle width="90" height="30" as="alternateBounds" />
          </mxGeometry>
        </mxCell>
        <mxCell id="LF_uzQrmGtcTdr1EB5Od-121" style="shape=partialRectangle;connectable=0;fillColor=none;top=0;left=0;bottom=0;right=0;align=center;spacingLeft=0;overflow=hidden;whiteSpace=wrap;html=1;fontSize=16;" vertex="1" parent="LF_uzQrmGtcTdr1EB5Od-118">
          <mxGeometry x="356" width="40" height="30" as="geometry">
            <mxRectangle width="40" height="30" as="alternateBounds" />
          </mxGeometry>
        </mxCell>
        <mxCell id="LF_uzQrmGtcTdr1EB5Od-122" style="shape=partialRectangle;connectable=0;fillColor=none;top=0;left=0;bottom=0;right=0;align=center;spacingLeft=0;overflow=hidden;whiteSpace=wrap;html=1;fontSize=16;" vertex="1" parent="LF_uzQrmGtcTdr1EB5Od-118">
          <mxGeometry x="396" width="40" height="30" as="geometry">
            <mxRectangle width="40" height="30" as="alternateBounds" />
          </mxGeometry>
        </mxCell>
        <mxCell id="LF_uzQrmGtcTdr1EB5Od-123" style="shape=partialRectangle;connectable=0;fillColor=none;top=0;left=0;bottom=0;right=0;align=center;spacingLeft=0;overflow=hidden;whiteSpace=wrap;html=1;fontSize=16;" vertex="1" parent="LF_uzQrmGtcTdr1EB5Od-118">
          <mxGeometry x="436" width="40" height="30" as="geometry">
            <mxRectangle width="40" height="30" as="alternateBounds" />
          </mxGeometry>
        </mxCell>
        <mxCell id="LF_uzQrmGtcTdr1EB5Od-124" style="shape=partialRectangle;connectable=0;fillColor=none;top=0;left=0;bottom=0;right=0;align=center;spacingLeft=0;overflow=hidden;whiteSpace=wrap;html=1;fontSize=16;" vertex="1" parent="LF_uzQrmGtcTdr1EB5Od-118">
          <mxGeometry x="476" width="40" height="30" as="geometry">
            <mxRectangle width="40" height="30" as="alternateBounds" />
          </mxGeometry>
        </mxCell>
        <mxCell id="LF_uzQrmGtcTdr1EB5Od-125" style="shape=partialRectangle;connectable=0;fillColor=none;top=0;left=0;bottom=0;right=0;align=center;spacingLeft=0;overflow=hidden;whiteSpace=wrap;html=1;fontSize=16;" vertex="1" parent="LF_uzQrmGtcTdr1EB5Od-118">
          <mxGeometry x="516" width="40" height="30" as="geometry">
            <mxRectangle width="40" height="30" as="alternateBounds" />
          </mxGeometry>
        </mxCell>
        <mxCell id="LF_uzQrmGtcTdr1EB5Od-258" style="edgeStyle=orthogonalEdgeStyle;shape=connector;rounded=0;orthogonalLoop=1;jettySize=auto;html=1;entryX=0;entryY=0.5;entryDx=0;entryDy=0;strokeColor=default;align=center;verticalAlign=middle;fontFamily=Helvetica;fontSize=11;fontColor=default;labelBackgroundColor=default;endArrow=none;endFill=0;" edge="1" parent="1" source="LF_uzQrmGtcTdr1EB5Od-145" target="LF_uzQrmGtcTdr1EB5Od-47">
          <mxGeometry relative="1" as="geometry">
            <Array as="points">
              <mxPoint x="530" y="-60" />
              <mxPoint x="530" y="495" />
            </Array>
          </mxGeometry>
        </mxCell>
        <mxCell id="LF_uzQrmGtcTdr1EB5Od-145" value="Marke" style="shape=table;startSize=30;container=1;collapsible=1;childLayout=tableLayout;fixedRows=1;rowLines=0;fontStyle=1;align=center;resizeLast=1;html=1;" vertex="1" parent="1">
          <mxGeometry x="-40" y="-120" width="400" height="120" as="geometry" />
        </mxCell>
        <mxCell id="LF_uzQrmGtcTdr1EB5Od-146" value="" style="shape=tableRow;horizontal=0;startSize=0;swimlaneHead=0;swimlaneBody=0;fillColor=none;collapsible=0;dropTarget=0;points=[[0,0.5],[1,0.5]];portConstraint=eastwest;top=0;left=0;right=0;bottom=1;spacingLeft=6;" vertex="1" parent="LF_uzQrmGtcTdr1EB5Od-145">
          <mxGeometry y="30" width="400" height="30" as="geometry" />
        </mxCell>
        <mxCell id="LF_uzQrmGtcTdr1EB5Od-147" value="Columnname" style="shape=partialRectangle;connectable=0;fillColor=none;top=0;left=0;bottom=0;right=0;align=left;spacingLeft=6;fontStyle=5;overflow=hidden;whiteSpace=wrap;html=1;" vertex="1" parent="LF_uzQrmGtcTdr1EB5Od-146">
          <mxGeometry width="119.99999999999977" height="30" as="geometry">
            <mxRectangle width="119.99999999999977" height="30" as="alternateBounds" />
          </mxGeometry>
        </mxCell>
        <mxCell id="LF_uzQrmGtcTdr1EB5Od-148" value="Type" style="shape=partialRectangle;connectable=0;fillColor=none;top=0;left=0;bottom=0;right=0;align=left;spacingLeft=6;fontStyle=5;overflow=hidden;whiteSpace=wrap;html=1;" vertex="1" parent="LF_uzQrmGtcTdr1EB5Od-146">
          <mxGeometry x="119.99999999999977" width="80.00000000000023" height="30" as="geometry">
            <mxRectangle width="80.00000000000023" height="30" as="alternateBounds" />
          </mxGeometry>
        </mxCell>
        <mxCell id="LF_uzQrmGtcTdr1EB5Od-149" value="PK" style="shape=partialRectangle;connectable=0;fillColor=none;top=0;left=0;bottom=0;right=0;align=left;spacingLeft=6;fontStyle=5;overflow=hidden;whiteSpace=wrap;html=1;" vertex="1" parent="LF_uzQrmGtcTdr1EB5Od-146">
          <mxGeometry x="200" width="40" height="30" as="geometry">
            <mxRectangle width="40" height="30" as="alternateBounds" />
          </mxGeometry>
        </mxCell>
        <mxCell id="LF_uzQrmGtcTdr1EB5Od-150" value="FK" style="shape=partialRectangle;connectable=0;fillColor=none;top=0;left=0;bottom=0;right=0;align=left;spacingLeft=6;fontStyle=5;overflow=hidden;whiteSpace=wrap;html=1;" vertex="1" parent="LF_uzQrmGtcTdr1EB5Od-146">
          <mxGeometry x="240" width="40" height="30" as="geometry">
            <mxRectangle width="40" height="30" as="alternateBounds" />
          </mxGeometry>
        </mxCell>
        <mxCell id="LF_uzQrmGtcTdr1EB5Od-151" value="UQ" style="shape=partialRectangle;connectable=0;fillColor=none;top=0;left=0;bottom=0;right=0;align=left;spacingLeft=6;fontStyle=5;overflow=hidden;whiteSpace=wrap;html=1;" vertex="1" parent="LF_uzQrmGtcTdr1EB5Od-146">
          <mxGeometry x="280" width="40" height="30" as="geometry">
            <mxRectangle width="40" height="30" as="alternateBounds" />
          </mxGeometry>
        </mxCell>
        <mxCell id="LF_uzQrmGtcTdr1EB5Od-152" value="AA" style="shape=partialRectangle;connectable=0;fillColor=none;top=0;left=0;bottom=0;right=0;align=left;spacingLeft=6;fontStyle=5;overflow=hidden;whiteSpace=wrap;html=1;" vertex="1" parent="LF_uzQrmGtcTdr1EB5Od-146">
          <mxGeometry x="320" width="40" height="30" as="geometry">
            <mxRectangle width="40" height="30" as="alternateBounds" />
          </mxGeometry>
        </mxCell>
        <mxCell id="LF_uzQrmGtcTdr1EB5Od-153" style="shape=partialRectangle;connectable=0;fillColor=none;top=0;left=0;bottom=0;right=0;align=left;spacingLeft=6;fontStyle=5;overflow=hidden;whiteSpace=wrap;html=1;" vertex="1" parent="LF_uzQrmGtcTdr1EB5Od-146">
          <mxGeometry x="360" width="40" height="30" as="geometry">
            <mxRectangle width="40" height="30" as="alternateBounds" />
          </mxGeometry>
        </mxCell>
        <mxCell id="LF_uzQrmGtcTdr1EB5Od-154" value="" style="shape=tableRow;horizontal=0;startSize=0;swimlaneHead=0;swimlaneBody=0;fillColor=none;collapsible=0;dropTarget=0;points=[[0,0.5],[1,0.5]];portConstraint=eastwest;top=0;left=0;right=0;bottom=0;" vertex="1" parent="LF_uzQrmGtcTdr1EB5Od-145">
          <mxGeometry y="60" width="400" height="30" as="geometry" />
        </mxCell>
        <mxCell id="LF_uzQrmGtcTdr1EB5Od-155" value="id" style="shape=partialRectangle;connectable=0;fillColor=none;top=0;left=0;bottom=0;right=0;align=left;spacingLeft=6;overflow=hidden;whiteSpace=wrap;html=1;" vertex="1" parent="LF_uzQrmGtcTdr1EB5Od-154">
          <mxGeometry width="119.99999999999977" height="30" as="geometry">
            <mxRectangle width="119.99999999999977" height="30" as="alternateBounds" />
          </mxGeometry>
        </mxCell>
        <mxCell id="LF_uzQrmGtcTdr1EB5Od-156" value="INTEGER" style="shape=partialRectangle;connectable=0;fillColor=none;top=0;left=0;bottom=0;right=0;align=center;spacingLeft=0;overflow=hidden;whiteSpace=wrap;html=1;" vertex="1" parent="LF_uzQrmGtcTdr1EB5Od-154">
          <mxGeometry x="119.99999999999977" width="80.00000000000023" height="30" as="geometry">
            <mxRectangle width="80.00000000000023" height="30" as="alternateBounds" />
          </mxGeometry>
        </mxCell>
        <mxCell id="LF_uzQrmGtcTdr1EB5Od-157" value="&lt;font style=&quot;font-size: 16px;&quot;&gt;✅&lt;/font&gt;" style="shape=partialRectangle;connectable=0;fillColor=none;top=0;left=0;bottom=0;right=0;align=center;spacingLeft=0;overflow=hidden;whiteSpace=wrap;html=1;fontSize=16;" vertex="1" parent="LF_uzQrmGtcTdr1EB5Od-154">
          <mxGeometry x="200" width="40" height="30" as="geometry">
            <mxRectangle width="40" height="30" as="alternateBounds" />
          </mxGeometry>
        </mxCell>
        <mxCell id="LF_uzQrmGtcTdr1EB5Od-158" style="shape=partialRectangle;connectable=0;fillColor=none;top=0;left=0;bottom=0;right=0;align=center;spacingLeft=0;overflow=hidden;whiteSpace=wrap;html=1;fontSize=16;" vertex="1" parent="LF_uzQrmGtcTdr1EB5Od-154">
          <mxGeometry x="240" width="40" height="30" as="geometry">
            <mxRectangle width="40" height="30" as="alternateBounds" />
          </mxGeometry>
        </mxCell>
        <mxCell id="LF_uzQrmGtcTdr1EB5Od-159" style="shape=partialRectangle;connectable=0;fillColor=none;top=0;left=0;bottom=0;right=0;align=center;spacingLeft=0;overflow=hidden;whiteSpace=wrap;html=1;fontSize=16;" vertex="1" parent="LF_uzQrmGtcTdr1EB5Od-154">
          <mxGeometry x="280" width="40" height="30" as="geometry">
            <mxRectangle width="40" height="30" as="alternateBounds" />
          </mxGeometry>
        </mxCell>
        <mxCell id="LF_uzQrmGtcTdr1EB5Od-160" value="✅" style="shape=partialRectangle;connectable=0;fillColor=none;top=0;left=0;bottom=0;right=0;align=center;spacingLeft=0;overflow=hidden;whiteSpace=wrap;html=1;fontSize=16;" vertex="1" parent="LF_uzQrmGtcTdr1EB5Od-154">
          <mxGeometry x="320" width="40" height="30" as="geometry">
            <mxRectangle width="40" height="30" as="alternateBounds" />
          </mxGeometry>
        </mxCell>
        <mxCell id="LF_uzQrmGtcTdr1EB5Od-161" style="shape=partialRectangle;connectable=0;fillColor=none;top=0;left=0;bottom=0;right=0;align=center;spacingLeft=0;overflow=hidden;whiteSpace=wrap;html=1;fontSize=16;" vertex="1" parent="LF_uzQrmGtcTdr1EB5Od-154">
          <mxGeometry x="360" width="40" height="30" as="geometry">
            <mxRectangle width="40" height="30" as="alternateBounds" />
          </mxGeometry>
        </mxCell>
        <mxCell id="LF_uzQrmGtcTdr1EB5Od-162" value="" style="shape=tableRow;horizontal=0;startSize=0;swimlaneHead=0;swimlaneBody=0;fillColor=none;collapsible=0;dropTarget=0;points=[[0,0.5],[1,0.5]];portConstraint=eastwest;top=0;left=0;right=0;bottom=0;" vertex="1" parent="LF_uzQrmGtcTdr1EB5Od-145">
          <mxGeometry y="90" width="400" height="30" as="geometry" />
        </mxCell>
        <mxCell id="LF_uzQrmGtcTdr1EB5Od-163" value="name" style="shape=partialRectangle;connectable=0;fillColor=none;top=0;left=0;bottom=0;right=0;align=left;spacingLeft=6;overflow=hidden;whiteSpace=wrap;html=1;" vertex="1" parent="LF_uzQrmGtcTdr1EB5Od-162">
          <mxGeometry width="119.99999999999977" height="30" as="geometry">
            <mxRectangle width="119.99999999999977" height="30" as="alternateBounds" />
          </mxGeometry>
        </mxCell>
        <mxCell id="LF_uzQrmGtcTdr1EB5Od-164" value="TEXT" style="shape=partialRectangle;connectable=0;fillColor=none;top=0;left=0;bottom=0;right=0;align=center;spacingLeft=0;overflow=hidden;whiteSpace=wrap;html=1;" vertex="1" parent="LF_uzQrmGtcTdr1EB5Od-162">
          <mxGeometry x="119.99999999999977" width="80.00000000000023" height="30" as="geometry">
            <mxRectangle width="80.00000000000023" height="30" as="alternateBounds" />
          </mxGeometry>
        </mxCell>
        <mxCell id="LF_uzQrmGtcTdr1EB5Od-165" style="shape=partialRectangle;connectable=0;fillColor=none;top=0;left=0;bottom=0;right=0;align=center;spacingLeft=0;overflow=hidden;whiteSpace=wrap;html=1;fontSize=16;" vertex="1" parent="LF_uzQrmGtcTdr1EB5Od-162">
          <mxGeometry x="200" width="40" height="30" as="geometry">
            <mxRectangle width="40" height="30" as="alternateBounds" />
          </mxGeometry>
        </mxCell>
        <mxCell id="LF_uzQrmGtcTdr1EB5Od-166" style="shape=partialRectangle;connectable=0;fillColor=none;top=0;left=0;bottom=0;right=0;align=center;spacingLeft=0;overflow=hidden;whiteSpace=wrap;html=1;fontSize=16;" vertex="1" parent="LF_uzQrmGtcTdr1EB5Od-162">
          <mxGeometry x="240" width="40" height="30" as="geometry">
            <mxRectangle width="40" height="30" as="alternateBounds" />
          </mxGeometry>
        </mxCell>
        <mxCell id="LF_uzQrmGtcTdr1EB5Od-167" value="✅" style="shape=partialRectangle;connectable=0;fillColor=none;top=0;left=0;bottom=0;right=0;align=center;spacingLeft=0;overflow=hidden;whiteSpace=wrap;html=1;fontSize=16;" vertex="1" parent="LF_uzQrmGtcTdr1EB5Od-162">
          <mxGeometry x="280" width="40" height="30" as="geometry">
            <mxRectangle width="40" height="30" as="alternateBounds" />
          </mxGeometry>
        </mxCell>
        <mxCell id="LF_uzQrmGtcTdr1EB5Od-168" style="shape=partialRectangle;connectable=0;fillColor=none;top=0;left=0;bottom=0;right=0;align=center;spacingLeft=0;overflow=hidden;whiteSpace=wrap;html=1;fontSize=16;" vertex="1" parent="LF_uzQrmGtcTdr1EB5Od-162">
          <mxGeometry x="320" width="40" height="30" as="geometry">
            <mxRectangle width="40" height="30" as="alternateBounds" />
          </mxGeometry>
        </mxCell>
        <mxCell id="LF_uzQrmGtcTdr1EB5Od-169" style="shape=partialRectangle;connectable=0;fillColor=none;top=0;left=0;bottom=0;right=0;align=center;spacingLeft=0;overflow=hidden;whiteSpace=wrap;html=1;fontSize=16;" vertex="1" parent="LF_uzQrmGtcTdr1EB5Od-162">
          <mxGeometry x="360" width="40" height="30" as="geometry">
            <mxRectangle width="40" height="30" as="alternateBounds" />
          </mxGeometry>
        </mxCell>
        <mxCell id="LF_uzQrmGtcTdr1EB5Od-310" style="edgeStyle=orthogonalEdgeStyle;shape=connector;rounded=0;orthogonalLoop=1;jettySize=auto;html=1;entryX=0;entryY=0.5;entryDx=0;entryDy=0;strokeColor=default;align=center;verticalAlign=middle;fontFamily=Helvetica;fontSize=11;fontColor=default;labelBackgroundColor=default;endArrow=none;endFill=0;" edge="1" parent="1" source="LF_uzQrmGtcTdr1EB5Od-284" target="LF_uzQrmGtcTdr1EB5Od-55">
          <mxGeometry relative="1" as="geometry">
            <Array as="points">
              <mxPoint x="510" y="100" />
              <mxPoint x="510" y="525" />
            </Array>
          </mxGeometry>
        </mxCell>
        <mxCell id="LF_uzQrmGtcTdr1EB5Od-284" value="Modell" style="shape=table;startSize=30;container=1;collapsible=1;childLayout=tableLayout;fixedRows=1;rowLines=0;fontStyle=1;align=center;resizeLast=1;html=1;" vertex="1" parent="1">
          <mxGeometry x="-40" y="40" width="400" height="120" as="geometry" />
        </mxCell>
        <mxCell id="LF_uzQrmGtcTdr1EB5Od-285" value="" style="shape=tableRow;horizontal=0;startSize=0;swimlaneHead=0;swimlaneBody=0;fillColor=none;collapsible=0;dropTarget=0;points=[[0,0.5],[1,0.5]];portConstraint=eastwest;top=0;left=0;right=0;bottom=1;spacingLeft=6;" vertex="1" parent="LF_uzQrmGtcTdr1EB5Od-284">
          <mxGeometry y="30" width="400" height="30" as="geometry" />
        </mxCell>
        <mxCell id="LF_uzQrmGtcTdr1EB5Od-286" value="Columnname" style="shape=partialRectangle;connectable=0;fillColor=none;top=0;left=0;bottom=0;right=0;align=left;spacingLeft=6;fontStyle=5;overflow=hidden;whiteSpace=wrap;html=1;" vertex="1" parent="LF_uzQrmGtcTdr1EB5Od-285">
          <mxGeometry width="119.99999999999977" height="30" as="geometry">
            <mxRectangle width="119.99999999999977" height="30" as="alternateBounds" />
          </mxGeometry>
        </mxCell>
        <mxCell id="LF_uzQrmGtcTdr1EB5Od-287" value="Type" style="shape=partialRectangle;connectable=0;fillColor=none;top=0;left=0;bottom=0;right=0;align=left;spacingLeft=6;fontStyle=5;overflow=hidden;whiteSpace=wrap;html=1;" vertex="1" parent="LF_uzQrmGtcTdr1EB5Od-285">
          <mxGeometry x="119.99999999999977" width="80.00000000000023" height="30" as="geometry">
            <mxRectangle width="80.00000000000023" height="30" as="alternateBounds" />
          </mxGeometry>
        </mxCell>
        <mxCell id="LF_uzQrmGtcTdr1EB5Od-288" value="PK" style="shape=partialRectangle;connectable=0;fillColor=none;top=0;left=0;bottom=0;right=0;align=left;spacingLeft=6;fontStyle=5;overflow=hidden;whiteSpace=wrap;html=1;" vertex="1" parent="LF_uzQrmGtcTdr1EB5Od-285">
          <mxGeometry x="200" width="40" height="30" as="geometry">
            <mxRectangle width="40" height="30" as="alternateBounds" />
          </mxGeometry>
        </mxCell>
        <mxCell id="LF_uzQrmGtcTdr1EB5Od-289" value="FK" style="shape=partialRectangle;connectable=0;fillColor=none;top=0;left=0;bottom=0;right=0;align=left;spacingLeft=6;fontStyle=5;overflow=hidden;whiteSpace=wrap;html=1;" vertex="1" parent="LF_uzQrmGtcTdr1EB5Od-285">
          <mxGeometry x="240" width="40" height="30" as="geometry">
            <mxRectangle width="40" height="30" as="alternateBounds" />
          </mxGeometry>
        </mxCell>
        <mxCell id="LF_uzQrmGtcTdr1EB5Od-290" value="UQ" style="shape=partialRectangle;connectable=0;fillColor=none;top=0;left=0;bottom=0;right=0;align=left;spacingLeft=6;fontStyle=5;overflow=hidden;whiteSpace=wrap;html=1;" vertex="1" parent="LF_uzQrmGtcTdr1EB5Od-285">
          <mxGeometry x="280" width="40" height="30" as="geometry">
            <mxRectangle width="40" height="30" as="alternateBounds" />
          </mxGeometry>
        </mxCell>
        <mxCell id="LF_uzQrmGtcTdr1EB5Od-291" value="AA" style="shape=partialRectangle;connectable=0;fillColor=none;top=0;left=0;bottom=0;right=0;align=left;spacingLeft=6;fontStyle=5;overflow=hidden;whiteSpace=wrap;html=1;" vertex="1" parent="LF_uzQrmGtcTdr1EB5Od-285">
          <mxGeometry x="320" width="40" height="30" as="geometry">
            <mxRectangle width="40" height="30" as="alternateBounds" />
          </mxGeometry>
        </mxCell>
        <mxCell id="LF_uzQrmGtcTdr1EB5Od-292" style="shape=partialRectangle;connectable=0;fillColor=none;top=0;left=0;bottom=0;right=0;align=left;spacingLeft=6;fontStyle=5;overflow=hidden;whiteSpace=wrap;html=1;" vertex="1" parent="LF_uzQrmGtcTdr1EB5Od-285">
          <mxGeometry x="360" width="40" height="30" as="geometry">
            <mxRectangle width="40" height="30" as="alternateBounds" />
          </mxGeometry>
        </mxCell>
        <mxCell id="LF_uzQrmGtcTdr1EB5Od-293" value="" style="shape=tableRow;horizontal=0;startSize=0;swimlaneHead=0;swimlaneBody=0;fillColor=none;collapsible=0;dropTarget=0;points=[[0,0.5],[1,0.5]];portConstraint=eastwest;top=0;left=0;right=0;bottom=0;" vertex="1" parent="LF_uzQrmGtcTdr1EB5Od-284">
          <mxGeometry y="60" width="400" height="30" as="geometry" />
        </mxCell>
        <mxCell id="LF_uzQrmGtcTdr1EB5Od-294" value="id" style="shape=partialRectangle;connectable=0;fillColor=none;top=0;left=0;bottom=0;right=0;align=left;spacingLeft=6;overflow=hidden;whiteSpace=wrap;html=1;" vertex="1" parent="LF_uzQrmGtcTdr1EB5Od-293">
          <mxGeometry width="119.99999999999977" height="30" as="geometry">
            <mxRectangle width="119.99999999999977" height="30" as="alternateBounds" />
          </mxGeometry>
        </mxCell>
        <mxCell id="LF_uzQrmGtcTdr1EB5Od-295" value="INTEGER" style="shape=partialRectangle;connectable=0;fillColor=none;top=0;left=0;bottom=0;right=0;align=center;spacingLeft=0;overflow=hidden;whiteSpace=wrap;html=1;" vertex="1" parent="LF_uzQrmGtcTdr1EB5Od-293">
          <mxGeometry x="119.99999999999977" width="80.00000000000023" height="30" as="geometry">
            <mxRectangle width="80.00000000000023" height="30" as="alternateBounds" />
          </mxGeometry>
        </mxCell>
        <mxCell id="LF_uzQrmGtcTdr1EB5Od-296" value="&lt;font style=&quot;font-size: 16px;&quot;&gt;✅&lt;/font&gt;" style="shape=partialRectangle;connectable=0;fillColor=none;top=0;left=0;bottom=0;right=0;align=center;spacingLeft=0;overflow=hidden;whiteSpace=wrap;html=1;fontSize=16;" vertex="1" parent="LF_uzQrmGtcTdr1EB5Od-293">
          <mxGeometry x="200" width="40" height="30" as="geometry">
            <mxRectangle width="40" height="30" as="alternateBounds" />
          </mxGeometry>
        </mxCell>
        <mxCell id="LF_uzQrmGtcTdr1EB5Od-297" style="shape=partialRectangle;connectable=0;fillColor=none;top=0;left=0;bottom=0;right=0;align=center;spacingLeft=0;overflow=hidden;whiteSpace=wrap;html=1;fontSize=16;" vertex="1" parent="LF_uzQrmGtcTdr1EB5Od-293">
          <mxGeometry x="240" width="40" height="30" as="geometry">
            <mxRectangle width="40" height="30" as="alternateBounds" />
          </mxGeometry>
        </mxCell>
        <mxCell id="LF_uzQrmGtcTdr1EB5Od-298" style="shape=partialRectangle;connectable=0;fillColor=none;top=0;left=0;bottom=0;right=0;align=center;spacingLeft=0;overflow=hidden;whiteSpace=wrap;html=1;fontSize=16;" vertex="1" parent="LF_uzQrmGtcTdr1EB5Od-293">
          <mxGeometry x="280" width="40" height="30" as="geometry">
            <mxRectangle width="40" height="30" as="alternateBounds" />
          </mxGeometry>
        </mxCell>
        <mxCell id="LF_uzQrmGtcTdr1EB5Od-299" value="✅" style="shape=partialRectangle;connectable=0;fillColor=none;top=0;left=0;bottom=0;right=0;align=center;spacingLeft=0;overflow=hidden;whiteSpace=wrap;html=1;fontSize=16;" vertex="1" parent="LF_uzQrmGtcTdr1EB5Od-293">
          <mxGeometry x="320" width="40" height="30" as="geometry">
            <mxRectangle width="40" height="30" as="alternateBounds" />
          </mxGeometry>
        </mxCell>
        <mxCell id="LF_uzQrmGtcTdr1EB5Od-300" style="shape=partialRectangle;connectable=0;fillColor=none;top=0;left=0;bottom=0;right=0;align=center;spacingLeft=0;overflow=hidden;whiteSpace=wrap;html=1;fontSize=16;" vertex="1" parent="LF_uzQrmGtcTdr1EB5Od-293">
          <mxGeometry x="360" width="40" height="30" as="geometry">
            <mxRectangle width="40" height="30" as="alternateBounds" />
          </mxGeometry>
        </mxCell>
        <mxCell id="LF_uzQrmGtcTdr1EB5Od-301" value="" style="shape=tableRow;horizontal=0;startSize=0;swimlaneHead=0;swimlaneBody=0;fillColor=none;collapsible=0;dropTarget=0;points=[[0,0.5],[1,0.5]];portConstraint=eastwest;top=0;left=0;right=0;bottom=0;" vertex="1" parent="LF_uzQrmGtcTdr1EB5Od-284">
          <mxGeometry y="90" width="400" height="30" as="geometry" />
        </mxCell>
        <mxCell id="LF_uzQrmGtcTdr1EB5Od-302" value="name" style="shape=partialRectangle;connectable=0;fillColor=none;top=0;left=0;bottom=0;right=0;align=left;spacingLeft=6;overflow=hidden;whiteSpace=wrap;html=1;" vertex="1" parent="LF_uzQrmGtcTdr1EB5Od-301">
          <mxGeometry width="119.99999999999977" height="30" as="geometry">
            <mxRectangle width="119.99999999999977" height="30" as="alternateBounds" />
          </mxGeometry>
        </mxCell>
        <mxCell id="LF_uzQrmGtcTdr1EB5Od-303" value="TEXT" style="shape=partialRectangle;connectable=0;fillColor=none;top=0;left=0;bottom=0;right=0;align=center;spacingLeft=0;overflow=hidden;whiteSpace=wrap;html=1;" vertex="1" parent="LF_uzQrmGtcTdr1EB5Od-301">
          <mxGeometry x="119.99999999999977" width="80.00000000000023" height="30" as="geometry">
            <mxRectangle width="80.00000000000023" height="30" as="alternateBounds" />
          </mxGeometry>
        </mxCell>
        <mxCell id="LF_uzQrmGtcTdr1EB5Od-304" style="shape=partialRectangle;connectable=0;fillColor=none;top=0;left=0;bottom=0;right=0;align=center;spacingLeft=0;overflow=hidden;whiteSpace=wrap;html=1;fontSize=16;" vertex="1" parent="LF_uzQrmGtcTdr1EB5Od-301">
          <mxGeometry x="200" width="40" height="30" as="geometry">
            <mxRectangle width="40" height="30" as="alternateBounds" />
          </mxGeometry>
        </mxCell>
        <mxCell id="LF_uzQrmGtcTdr1EB5Od-305" style="shape=partialRectangle;connectable=0;fillColor=none;top=0;left=0;bottom=0;right=0;align=center;spacingLeft=0;overflow=hidden;whiteSpace=wrap;html=1;fontSize=16;" vertex="1" parent="LF_uzQrmGtcTdr1EB5Od-301">
          <mxGeometry x="240" width="40" height="30" as="geometry">
            <mxRectangle width="40" height="30" as="alternateBounds" />
          </mxGeometry>
        </mxCell>
        <mxCell id="LF_uzQrmGtcTdr1EB5Od-306" value="✅" style="shape=partialRectangle;connectable=0;fillColor=none;top=0;left=0;bottom=0;right=0;align=center;spacingLeft=0;overflow=hidden;whiteSpace=wrap;html=1;fontSize=16;" vertex="1" parent="LF_uzQrmGtcTdr1EB5Od-301">
          <mxGeometry x="280" width="40" height="30" as="geometry">
            <mxRectangle width="40" height="30" as="alternateBounds" />
          </mxGeometry>
        </mxCell>
        <mxCell id="LF_uzQrmGtcTdr1EB5Od-307" style="shape=partialRectangle;connectable=0;fillColor=none;top=0;left=0;bottom=0;right=0;align=center;spacingLeft=0;overflow=hidden;whiteSpace=wrap;html=1;fontSize=16;" vertex="1" parent="LF_uzQrmGtcTdr1EB5Od-301">
          <mxGeometry x="320" width="40" height="30" as="geometry">
            <mxRectangle width="40" height="30" as="alternateBounds" />
          </mxGeometry>
        </mxCell>
        <mxCell id="LF_uzQrmGtcTdr1EB5Od-308" style="shape=partialRectangle;connectable=0;fillColor=none;top=0;left=0;bottom=0;right=0;align=center;spacingLeft=0;overflow=hidden;whiteSpace=wrap;html=1;fontSize=16;" vertex="1" parent="LF_uzQrmGtcTdr1EB5Od-301">
          <mxGeometry x="360" width="40" height="30" as="geometry">
            <mxRectangle width="40" height="30" as="alternateBounds" />
          </mxGeometry>
        </mxCell>
        <mxCell id="LF_uzQrmGtcTdr1EB5Od-311" value="Kraftsoff" style="shape=table;startSize=30;container=1;collapsible=1;childLayout=tableLayout;fixedRows=1;rowLines=0;fontStyle=1;align=center;resizeLast=1;html=1;" vertex="1" parent="1">
          <mxGeometry x="-40" y="200" width="400" height="120" as="geometry" />
        </mxCell>
        <mxCell id="LF_uzQrmGtcTdr1EB5Od-312" value="" style="shape=tableRow;horizontal=0;startSize=0;swimlaneHead=0;swimlaneBody=0;fillColor=none;collapsible=0;dropTarget=0;points=[[0,0.5],[1,0.5]];portConstraint=eastwest;top=0;left=0;right=0;bottom=1;spacingLeft=6;" vertex="1" parent="LF_uzQrmGtcTdr1EB5Od-311">
          <mxGeometry y="30" width="400" height="30" as="geometry" />
        </mxCell>
        <mxCell id="LF_uzQrmGtcTdr1EB5Od-313" value="Columnname" style="shape=partialRectangle;connectable=0;fillColor=none;top=0;left=0;bottom=0;right=0;align=left;spacingLeft=6;fontStyle=5;overflow=hidden;whiteSpace=wrap;html=1;" vertex="1" parent="LF_uzQrmGtcTdr1EB5Od-312">
          <mxGeometry width="119.99999999999977" height="30" as="geometry">
            <mxRectangle width="119.99999999999977" height="30" as="alternateBounds" />
          </mxGeometry>
        </mxCell>
        <mxCell id="LF_uzQrmGtcTdr1EB5Od-314" value="Type" style="shape=partialRectangle;connectable=0;fillColor=none;top=0;left=0;bottom=0;right=0;align=left;spacingLeft=6;fontStyle=5;overflow=hidden;whiteSpace=wrap;html=1;" vertex="1" parent="LF_uzQrmGtcTdr1EB5Od-312">
          <mxGeometry x="119.99999999999977" width="80.00000000000023" height="30" as="geometry">
            <mxRectangle width="80.00000000000023" height="30" as="alternateBounds" />
          </mxGeometry>
        </mxCell>
        <mxCell id="LF_uzQrmGtcTdr1EB5Od-315" value="PK" style="shape=partialRectangle;connectable=0;fillColor=none;top=0;left=0;bottom=0;right=0;align=left;spacingLeft=6;fontStyle=5;overflow=hidden;whiteSpace=wrap;html=1;" vertex="1" parent="LF_uzQrmGtcTdr1EB5Od-312">
          <mxGeometry x="200" width="40" height="30" as="geometry">
            <mxRectangle width="40" height="30" as="alternateBounds" />
          </mxGeometry>
        </mxCell>
        <mxCell id="LF_uzQrmGtcTdr1EB5Od-316" value="FK" style="shape=partialRectangle;connectable=0;fillColor=none;top=0;left=0;bottom=0;right=0;align=left;spacingLeft=6;fontStyle=5;overflow=hidden;whiteSpace=wrap;html=1;" vertex="1" parent="LF_uzQrmGtcTdr1EB5Od-312">
          <mxGeometry x="240" width="40" height="30" as="geometry">
            <mxRectangle width="40" height="30" as="alternateBounds" />
          </mxGeometry>
        </mxCell>
        <mxCell id="LF_uzQrmGtcTdr1EB5Od-317" value="UQ" style="shape=partialRectangle;connectable=0;fillColor=none;top=0;left=0;bottom=0;right=0;align=left;spacingLeft=6;fontStyle=5;overflow=hidden;whiteSpace=wrap;html=1;" vertex="1" parent="LF_uzQrmGtcTdr1EB5Od-312">
          <mxGeometry x="280" width="40" height="30" as="geometry">
            <mxRectangle width="40" height="30" as="alternateBounds" />
          </mxGeometry>
        </mxCell>
        <mxCell id="LF_uzQrmGtcTdr1EB5Od-318" value="AA" style="shape=partialRectangle;connectable=0;fillColor=none;top=0;left=0;bottom=0;right=0;align=left;spacingLeft=6;fontStyle=5;overflow=hidden;whiteSpace=wrap;html=1;" vertex="1" parent="LF_uzQrmGtcTdr1EB5Od-312">
          <mxGeometry x="320" width="40" height="30" as="geometry">
            <mxRectangle width="40" height="30" as="alternateBounds" />
          </mxGeometry>
        </mxCell>
        <mxCell id="LF_uzQrmGtcTdr1EB5Od-319" style="shape=partialRectangle;connectable=0;fillColor=none;top=0;left=0;bottom=0;right=0;align=left;spacingLeft=6;fontStyle=5;overflow=hidden;whiteSpace=wrap;html=1;" vertex="1" parent="LF_uzQrmGtcTdr1EB5Od-312">
          <mxGeometry x="360" width="40" height="30" as="geometry">
            <mxRectangle width="40" height="30" as="alternateBounds" />
          </mxGeometry>
        </mxCell>
        <mxCell id="LF_uzQrmGtcTdr1EB5Od-320" value="" style="shape=tableRow;horizontal=0;startSize=0;swimlaneHead=0;swimlaneBody=0;fillColor=none;collapsible=0;dropTarget=0;points=[[0,0.5],[1,0.5]];portConstraint=eastwest;top=0;left=0;right=0;bottom=0;" vertex="1" parent="LF_uzQrmGtcTdr1EB5Od-311">
          <mxGeometry y="60" width="400" height="30" as="geometry" />
        </mxCell>
        <mxCell id="LF_uzQrmGtcTdr1EB5Od-321" value="id" style="shape=partialRectangle;connectable=0;fillColor=none;top=0;left=0;bottom=0;right=0;align=left;spacingLeft=6;overflow=hidden;whiteSpace=wrap;html=1;" vertex="1" parent="LF_uzQrmGtcTdr1EB5Od-320">
          <mxGeometry width="119.99999999999977" height="30" as="geometry">
            <mxRectangle width="119.99999999999977" height="30" as="alternateBounds" />
          </mxGeometry>
        </mxCell>
        <mxCell id="LF_uzQrmGtcTdr1EB5Od-322" value="INTEGER" style="shape=partialRectangle;connectable=0;fillColor=none;top=0;left=0;bottom=0;right=0;align=center;spacingLeft=0;overflow=hidden;whiteSpace=wrap;html=1;" vertex="1" parent="LF_uzQrmGtcTdr1EB5Od-320">
          <mxGeometry x="119.99999999999977" width="80.00000000000023" height="30" as="geometry">
            <mxRectangle width="80.00000000000023" height="30" as="alternateBounds" />
          </mxGeometry>
        </mxCell>
        <mxCell id="LF_uzQrmGtcTdr1EB5Od-323" value="&lt;font style=&quot;font-size: 16px;&quot;&gt;✅&lt;/font&gt;" style="shape=partialRectangle;connectable=0;fillColor=none;top=0;left=0;bottom=0;right=0;align=center;spacingLeft=0;overflow=hidden;whiteSpace=wrap;html=1;fontSize=16;" vertex="1" parent="LF_uzQrmGtcTdr1EB5Od-320">
          <mxGeometry x="200" width="40" height="30" as="geometry">
            <mxRectangle width="40" height="30" as="alternateBounds" />
          </mxGeometry>
        </mxCell>
        <mxCell id="LF_uzQrmGtcTdr1EB5Od-324" style="shape=partialRectangle;connectable=0;fillColor=none;top=0;left=0;bottom=0;right=0;align=center;spacingLeft=0;overflow=hidden;whiteSpace=wrap;html=1;fontSize=16;" vertex="1" parent="LF_uzQrmGtcTdr1EB5Od-320">
          <mxGeometry x="240" width="40" height="30" as="geometry">
            <mxRectangle width="40" height="30" as="alternateBounds" />
          </mxGeometry>
        </mxCell>
        <mxCell id="LF_uzQrmGtcTdr1EB5Od-325" style="shape=partialRectangle;connectable=0;fillColor=none;top=0;left=0;bottom=0;right=0;align=center;spacingLeft=0;overflow=hidden;whiteSpace=wrap;html=1;fontSize=16;" vertex="1" parent="LF_uzQrmGtcTdr1EB5Od-320">
          <mxGeometry x="280" width="40" height="30" as="geometry">
            <mxRectangle width="40" height="30" as="alternateBounds" />
          </mxGeometry>
        </mxCell>
        <mxCell id="LF_uzQrmGtcTdr1EB5Od-326" value="✅" style="shape=partialRectangle;connectable=0;fillColor=none;top=0;left=0;bottom=0;right=0;align=center;spacingLeft=0;overflow=hidden;whiteSpace=wrap;html=1;fontSize=16;" vertex="1" parent="LF_uzQrmGtcTdr1EB5Od-320">
          <mxGeometry x="320" width="40" height="30" as="geometry">
            <mxRectangle width="40" height="30" as="alternateBounds" />
          </mxGeometry>
        </mxCell>
        <mxCell id="LF_uzQrmGtcTdr1EB5Od-327" style="shape=partialRectangle;connectable=0;fillColor=none;top=0;left=0;bottom=0;right=0;align=center;spacingLeft=0;overflow=hidden;whiteSpace=wrap;html=1;fontSize=16;" vertex="1" parent="LF_uzQrmGtcTdr1EB5Od-320">
          <mxGeometry x="360" width="40" height="30" as="geometry">
            <mxRectangle width="40" height="30" as="alternateBounds" />
          </mxGeometry>
        </mxCell>
        <mxCell id="LF_uzQrmGtcTdr1EB5Od-328" value="" style="shape=tableRow;horizontal=0;startSize=0;swimlaneHead=0;swimlaneBody=0;fillColor=none;collapsible=0;dropTarget=0;points=[[0,0.5],[1,0.5]];portConstraint=eastwest;top=0;left=0;right=0;bottom=0;" vertex="1" parent="LF_uzQrmGtcTdr1EB5Od-311">
          <mxGeometry y="90" width="400" height="30" as="geometry" />
        </mxCell>
        <mxCell id="LF_uzQrmGtcTdr1EB5Od-329" value="name" style="shape=partialRectangle;connectable=0;fillColor=none;top=0;left=0;bottom=0;right=0;align=left;spacingLeft=6;overflow=hidden;whiteSpace=wrap;html=1;" vertex="1" parent="LF_uzQrmGtcTdr1EB5Od-328">
          <mxGeometry width="119.99999999999977" height="30" as="geometry">
            <mxRectangle width="119.99999999999977" height="30" as="alternateBounds" />
          </mxGeometry>
        </mxCell>
        <mxCell id="LF_uzQrmGtcTdr1EB5Od-330" value="TEXT" style="shape=partialRectangle;connectable=0;fillColor=none;top=0;left=0;bottom=0;right=0;align=center;spacingLeft=0;overflow=hidden;whiteSpace=wrap;html=1;" vertex="1" parent="LF_uzQrmGtcTdr1EB5Od-328">
          <mxGeometry x="119.99999999999977" width="80.00000000000023" height="30" as="geometry">
            <mxRectangle width="80.00000000000023" height="30" as="alternateBounds" />
          </mxGeometry>
        </mxCell>
        <mxCell id="LF_uzQrmGtcTdr1EB5Od-331" style="shape=partialRectangle;connectable=0;fillColor=none;top=0;left=0;bottom=0;right=0;align=center;spacingLeft=0;overflow=hidden;whiteSpace=wrap;html=1;fontSize=16;" vertex="1" parent="LF_uzQrmGtcTdr1EB5Od-328">
          <mxGeometry x="200" width="40" height="30" as="geometry">
            <mxRectangle width="40" height="30" as="alternateBounds" />
          </mxGeometry>
        </mxCell>
        <mxCell id="LF_uzQrmGtcTdr1EB5Od-332" style="shape=partialRectangle;connectable=0;fillColor=none;top=0;left=0;bottom=0;right=0;align=center;spacingLeft=0;overflow=hidden;whiteSpace=wrap;html=1;fontSize=16;" vertex="1" parent="LF_uzQrmGtcTdr1EB5Od-328">
          <mxGeometry x="240" width="40" height="30" as="geometry">
            <mxRectangle width="40" height="30" as="alternateBounds" />
          </mxGeometry>
        </mxCell>
        <mxCell id="LF_uzQrmGtcTdr1EB5Od-333" value="✅" style="shape=partialRectangle;connectable=0;fillColor=none;top=0;left=0;bottom=0;right=0;align=center;spacingLeft=0;overflow=hidden;whiteSpace=wrap;html=1;fontSize=16;" vertex="1" parent="LF_uzQrmGtcTdr1EB5Od-328">
          <mxGeometry x="280" width="40" height="30" as="geometry">
            <mxRectangle width="40" height="30" as="alternateBounds" />
          </mxGeometry>
        </mxCell>
        <mxCell id="LF_uzQrmGtcTdr1EB5Od-334" style="shape=partialRectangle;connectable=0;fillColor=none;top=0;left=0;bottom=0;right=0;align=center;spacingLeft=0;overflow=hidden;whiteSpace=wrap;html=1;fontSize=16;" vertex="1" parent="LF_uzQrmGtcTdr1EB5Od-328">
          <mxGeometry x="320" width="40" height="30" as="geometry">
            <mxRectangle width="40" height="30" as="alternateBounds" />
          </mxGeometry>
        </mxCell>
        <mxCell id="LF_uzQrmGtcTdr1EB5Od-335" style="shape=partialRectangle;connectable=0;fillColor=none;top=0;left=0;bottom=0;right=0;align=center;spacingLeft=0;overflow=hidden;whiteSpace=wrap;html=1;fontSize=16;" vertex="1" parent="LF_uzQrmGtcTdr1EB5Od-328">
          <mxGeometry x="360" width="40" height="30" as="geometry">
            <mxRectangle width="40" height="30" as="alternateBounds" />
          </mxGeometry>
        </mxCell>
        <mxCell id="LF_uzQrmGtcTdr1EB5Od-339" style="edgeStyle=orthogonalEdgeStyle;shape=connector;rounded=0;orthogonalLoop=1;jettySize=auto;html=1;strokeColor=default;align=center;verticalAlign=middle;fontFamily=Helvetica;fontSize=11;fontColor=default;labelBackgroundColor=default;endArrow=none;endFill=0;" edge="1" parent="1" source="LF_uzQrmGtcTdr1EB5Od-320" target="LF_uzQrmGtcTdr1EB5Od-63">
          <mxGeometry relative="1" as="geometry">
            <Array as="points">
              <mxPoint x="480" y="275" />
              <mxPoint x="480" y="555" />
            </Array>
          </mxGeometry>
        </mxCell>
        <mxCell id="LF_uzQrmGtcTdr1EB5Od-365" style="edgeStyle=orthogonalEdgeStyle;shape=connector;rounded=0;orthogonalLoop=1;jettySize=auto;html=1;entryX=0;entryY=0.5;entryDx=0;entryDy=0;strokeColor=default;align=center;verticalAlign=middle;fontFamily=Helvetica;fontSize=11;fontColor=default;labelBackgroundColor=default;endArrow=none;endFill=0;" edge="1" parent="1" source="LF_uzQrmGtcTdr1EB5Od-340" target="LF_uzQrmGtcTdr1EB5Od-71">
          <mxGeometry relative="1" as="geometry">
            <Array as="points">
              <mxPoint x="440" y="420" />
              <mxPoint x="440" y="585" />
            </Array>
          </mxGeometry>
        </mxCell>
        <mxCell id="LF_uzQrmGtcTdr1EB5Od-340" value="&lt;span style=&quot;font-weight: 400; text-wrap: wrap;&quot;&gt;Getriebe&lt;/span&gt;" style="shape=table;startSize=30;container=1;collapsible=1;childLayout=tableLayout;fixedRows=1;rowLines=0;fontStyle=1;align=center;resizeLast=1;html=1;" vertex="1" parent="1">
          <mxGeometry x="-40" y="360" width="400" height="120" as="geometry" />
        </mxCell>
        <mxCell id="LF_uzQrmGtcTdr1EB5Od-341" value="" style="shape=tableRow;horizontal=0;startSize=0;swimlaneHead=0;swimlaneBody=0;fillColor=none;collapsible=0;dropTarget=0;points=[[0,0.5],[1,0.5]];portConstraint=eastwest;top=0;left=0;right=0;bottom=1;spacingLeft=6;" vertex="1" parent="LF_uzQrmGtcTdr1EB5Od-340">
          <mxGeometry y="30" width="400" height="30" as="geometry" />
        </mxCell>
        <mxCell id="LF_uzQrmGtcTdr1EB5Od-342" value="Columnname" style="shape=partialRectangle;connectable=0;fillColor=none;top=0;left=0;bottom=0;right=0;align=left;spacingLeft=6;fontStyle=5;overflow=hidden;whiteSpace=wrap;html=1;" vertex="1" parent="LF_uzQrmGtcTdr1EB5Od-341">
          <mxGeometry width="119.99999999999977" height="30" as="geometry">
            <mxRectangle width="119.99999999999977" height="30" as="alternateBounds" />
          </mxGeometry>
        </mxCell>
        <mxCell id="LF_uzQrmGtcTdr1EB5Od-343" value="Type" style="shape=partialRectangle;connectable=0;fillColor=none;top=0;left=0;bottom=0;right=0;align=left;spacingLeft=6;fontStyle=5;overflow=hidden;whiteSpace=wrap;html=1;" vertex="1" parent="LF_uzQrmGtcTdr1EB5Od-341">
          <mxGeometry x="119.99999999999977" width="80.00000000000023" height="30" as="geometry">
            <mxRectangle width="80.00000000000023" height="30" as="alternateBounds" />
          </mxGeometry>
        </mxCell>
        <mxCell id="LF_uzQrmGtcTdr1EB5Od-344" value="PK" style="shape=partialRectangle;connectable=0;fillColor=none;top=0;left=0;bottom=0;right=0;align=left;spacingLeft=6;fontStyle=5;overflow=hidden;whiteSpace=wrap;html=1;" vertex="1" parent="LF_uzQrmGtcTdr1EB5Od-341">
          <mxGeometry x="200" width="40" height="30" as="geometry">
            <mxRectangle width="40" height="30" as="alternateBounds" />
          </mxGeometry>
        </mxCell>
        <mxCell id="LF_uzQrmGtcTdr1EB5Od-345" value="FK" style="shape=partialRectangle;connectable=0;fillColor=none;top=0;left=0;bottom=0;right=0;align=left;spacingLeft=6;fontStyle=5;overflow=hidden;whiteSpace=wrap;html=1;" vertex="1" parent="LF_uzQrmGtcTdr1EB5Od-341">
          <mxGeometry x="240" width="40" height="30" as="geometry">
            <mxRectangle width="40" height="30" as="alternateBounds" />
          </mxGeometry>
        </mxCell>
        <mxCell id="LF_uzQrmGtcTdr1EB5Od-346" value="UQ" style="shape=partialRectangle;connectable=0;fillColor=none;top=0;left=0;bottom=0;right=0;align=left;spacingLeft=6;fontStyle=5;overflow=hidden;whiteSpace=wrap;html=1;" vertex="1" parent="LF_uzQrmGtcTdr1EB5Od-341">
          <mxGeometry x="280" width="40" height="30" as="geometry">
            <mxRectangle width="40" height="30" as="alternateBounds" />
          </mxGeometry>
        </mxCell>
        <mxCell id="LF_uzQrmGtcTdr1EB5Od-347" value="AA" style="shape=partialRectangle;connectable=0;fillColor=none;top=0;left=0;bottom=0;right=0;align=left;spacingLeft=6;fontStyle=5;overflow=hidden;whiteSpace=wrap;html=1;" vertex="1" parent="LF_uzQrmGtcTdr1EB5Od-341">
          <mxGeometry x="320" width="40" height="30" as="geometry">
            <mxRectangle width="40" height="30" as="alternateBounds" />
          </mxGeometry>
        </mxCell>
        <mxCell id="LF_uzQrmGtcTdr1EB5Od-348" style="shape=partialRectangle;connectable=0;fillColor=none;top=0;left=0;bottom=0;right=0;align=left;spacingLeft=6;fontStyle=5;overflow=hidden;whiteSpace=wrap;html=1;" vertex="1" parent="LF_uzQrmGtcTdr1EB5Od-341">
          <mxGeometry x="360" width="40" height="30" as="geometry">
            <mxRectangle width="40" height="30" as="alternateBounds" />
          </mxGeometry>
        </mxCell>
        <mxCell id="LF_uzQrmGtcTdr1EB5Od-349" value="" style="shape=tableRow;horizontal=0;startSize=0;swimlaneHead=0;swimlaneBody=0;fillColor=none;collapsible=0;dropTarget=0;points=[[0,0.5],[1,0.5]];portConstraint=eastwest;top=0;left=0;right=0;bottom=0;" vertex="1" parent="LF_uzQrmGtcTdr1EB5Od-340">
          <mxGeometry y="60" width="400" height="30" as="geometry" />
        </mxCell>
        <mxCell id="LF_uzQrmGtcTdr1EB5Od-350" value="id" style="shape=partialRectangle;connectable=0;fillColor=none;top=0;left=0;bottom=0;right=0;align=left;spacingLeft=6;overflow=hidden;whiteSpace=wrap;html=1;" vertex="1" parent="LF_uzQrmGtcTdr1EB5Od-349">
          <mxGeometry width="119.99999999999977" height="30" as="geometry">
            <mxRectangle width="119.99999999999977" height="30" as="alternateBounds" />
          </mxGeometry>
        </mxCell>
        <mxCell id="LF_uzQrmGtcTdr1EB5Od-351" value="INTEGER" style="shape=partialRectangle;connectable=0;fillColor=none;top=0;left=0;bottom=0;right=0;align=center;spacingLeft=0;overflow=hidden;whiteSpace=wrap;html=1;" vertex="1" parent="LF_uzQrmGtcTdr1EB5Od-349">
          <mxGeometry x="119.99999999999977" width="80.00000000000023" height="30" as="geometry">
            <mxRectangle width="80.00000000000023" height="30" as="alternateBounds" />
          </mxGeometry>
        </mxCell>
        <mxCell id="LF_uzQrmGtcTdr1EB5Od-352" value="&lt;font style=&quot;font-size: 16px;&quot;&gt;✅&lt;/font&gt;" style="shape=partialRectangle;connectable=0;fillColor=none;top=0;left=0;bottom=0;right=0;align=center;spacingLeft=0;overflow=hidden;whiteSpace=wrap;html=1;fontSize=16;" vertex="1" parent="LF_uzQrmGtcTdr1EB5Od-349">
          <mxGeometry x="200" width="40" height="30" as="geometry">
            <mxRectangle width="40" height="30" as="alternateBounds" />
          </mxGeometry>
        </mxCell>
        <mxCell id="LF_uzQrmGtcTdr1EB5Od-353" style="shape=partialRectangle;connectable=0;fillColor=none;top=0;left=0;bottom=0;right=0;align=center;spacingLeft=0;overflow=hidden;whiteSpace=wrap;html=1;fontSize=16;" vertex="1" parent="LF_uzQrmGtcTdr1EB5Od-349">
          <mxGeometry x="240" width="40" height="30" as="geometry">
            <mxRectangle width="40" height="30" as="alternateBounds" />
          </mxGeometry>
        </mxCell>
        <mxCell id="LF_uzQrmGtcTdr1EB5Od-354" style="shape=partialRectangle;connectable=0;fillColor=none;top=0;left=0;bottom=0;right=0;align=center;spacingLeft=0;overflow=hidden;whiteSpace=wrap;html=1;fontSize=16;" vertex="1" parent="LF_uzQrmGtcTdr1EB5Od-349">
          <mxGeometry x="280" width="40" height="30" as="geometry">
            <mxRectangle width="40" height="30" as="alternateBounds" />
          </mxGeometry>
        </mxCell>
        <mxCell id="LF_uzQrmGtcTdr1EB5Od-355" value="✅" style="shape=partialRectangle;connectable=0;fillColor=none;top=0;left=0;bottom=0;right=0;align=center;spacingLeft=0;overflow=hidden;whiteSpace=wrap;html=1;fontSize=16;" vertex="1" parent="LF_uzQrmGtcTdr1EB5Od-349">
          <mxGeometry x="320" width="40" height="30" as="geometry">
            <mxRectangle width="40" height="30" as="alternateBounds" />
          </mxGeometry>
        </mxCell>
        <mxCell id="LF_uzQrmGtcTdr1EB5Od-356" style="shape=partialRectangle;connectable=0;fillColor=none;top=0;left=0;bottom=0;right=0;align=center;spacingLeft=0;overflow=hidden;whiteSpace=wrap;html=1;fontSize=16;" vertex="1" parent="LF_uzQrmGtcTdr1EB5Od-349">
          <mxGeometry x="360" width="40" height="30" as="geometry">
            <mxRectangle width="40" height="30" as="alternateBounds" />
          </mxGeometry>
        </mxCell>
        <mxCell id="LF_uzQrmGtcTdr1EB5Od-357" value="" style="shape=tableRow;horizontal=0;startSize=0;swimlaneHead=0;swimlaneBody=0;fillColor=none;collapsible=0;dropTarget=0;points=[[0,0.5],[1,0.5]];portConstraint=eastwest;top=0;left=0;right=0;bottom=0;" vertex="1" parent="LF_uzQrmGtcTdr1EB5Od-340">
          <mxGeometry y="90" width="400" height="30" as="geometry" />
        </mxCell>
        <mxCell id="LF_uzQrmGtcTdr1EB5Od-358" value="name" style="shape=partialRectangle;connectable=0;fillColor=none;top=0;left=0;bottom=0;right=0;align=left;spacingLeft=6;overflow=hidden;whiteSpace=wrap;html=1;" vertex="1" parent="LF_uzQrmGtcTdr1EB5Od-357">
          <mxGeometry width="119.99999999999977" height="30" as="geometry">
            <mxRectangle width="119.99999999999977" height="30" as="alternateBounds" />
          </mxGeometry>
        </mxCell>
        <mxCell id="LF_uzQrmGtcTdr1EB5Od-359" value="TEXT" style="shape=partialRectangle;connectable=0;fillColor=none;top=0;left=0;bottom=0;right=0;align=center;spacingLeft=0;overflow=hidden;whiteSpace=wrap;html=1;" vertex="1" parent="LF_uzQrmGtcTdr1EB5Od-357">
          <mxGeometry x="119.99999999999977" width="80.00000000000023" height="30" as="geometry">
            <mxRectangle width="80.00000000000023" height="30" as="alternateBounds" />
          </mxGeometry>
        </mxCell>
        <mxCell id="LF_uzQrmGtcTdr1EB5Od-360" style="shape=partialRectangle;connectable=0;fillColor=none;top=0;left=0;bottom=0;right=0;align=center;spacingLeft=0;overflow=hidden;whiteSpace=wrap;html=1;fontSize=16;" vertex="1" parent="LF_uzQrmGtcTdr1EB5Od-357">
          <mxGeometry x="200" width="40" height="30" as="geometry">
            <mxRectangle width="40" height="30" as="alternateBounds" />
          </mxGeometry>
        </mxCell>
        <mxCell id="LF_uzQrmGtcTdr1EB5Od-361" style="shape=partialRectangle;connectable=0;fillColor=none;top=0;left=0;bottom=0;right=0;align=center;spacingLeft=0;overflow=hidden;whiteSpace=wrap;html=1;fontSize=16;" vertex="1" parent="LF_uzQrmGtcTdr1EB5Od-357">
          <mxGeometry x="240" width="40" height="30" as="geometry">
            <mxRectangle width="40" height="30" as="alternateBounds" />
          </mxGeometry>
        </mxCell>
        <mxCell id="LF_uzQrmGtcTdr1EB5Od-362" value="✅" style="shape=partialRectangle;connectable=0;fillColor=none;top=0;left=0;bottom=0;right=0;align=center;spacingLeft=0;overflow=hidden;whiteSpace=wrap;html=1;fontSize=16;" vertex="1" parent="LF_uzQrmGtcTdr1EB5Od-357">
          <mxGeometry x="280" width="40" height="30" as="geometry">
            <mxRectangle width="40" height="30" as="alternateBounds" />
          </mxGeometry>
        </mxCell>
        <mxCell id="LF_uzQrmGtcTdr1EB5Od-363" style="shape=partialRectangle;connectable=0;fillColor=none;top=0;left=0;bottom=0;right=0;align=center;spacingLeft=0;overflow=hidden;whiteSpace=wrap;html=1;fontSize=16;" vertex="1" parent="LF_uzQrmGtcTdr1EB5Od-357">
          <mxGeometry x="320" width="40" height="30" as="geometry">
            <mxRectangle width="40" height="30" as="alternateBounds" />
          </mxGeometry>
        </mxCell>
        <mxCell id="LF_uzQrmGtcTdr1EB5Od-364" style="shape=partialRectangle;connectable=0;fillColor=none;top=0;left=0;bottom=0;right=0;align=center;spacingLeft=0;overflow=hidden;whiteSpace=wrap;html=1;fontSize=16;" vertex="1" parent="LF_uzQrmGtcTdr1EB5Od-357">
          <mxGeometry x="360" width="40" height="30" as="geometry">
            <mxRectangle width="40" height="30" as="alternateBounds" />
          </mxGeometry>
        </mxCell>
        <mxCell id="LF_uzQrmGtcTdr1EB5Od-392" style="edgeStyle=orthogonalEdgeStyle;shape=connector;rounded=0;orthogonalLoop=1;jettySize=auto;html=1;entryX=0;entryY=0.5;entryDx=0;entryDy=0;strokeColor=default;align=center;verticalAlign=middle;fontFamily=Helvetica;fontSize=11;fontColor=default;labelBackgroundColor=default;endArrow=none;endFill=0;" edge="1" parent="1" source="LF_uzQrmGtcTdr1EB5Od-366" target="LF_uzQrmGtcTdr1EB5Od-79">
          <mxGeometry relative="1" as="geometry">
            <Array as="points">
              <mxPoint x="380" y="615" />
              <mxPoint x="380" y="615" />
            </Array>
          </mxGeometry>
        </mxCell>
        <mxCell id="LF_uzQrmGtcTdr1EB5Od-366" value="&lt;span style=&quot;font-weight: 400; text-wrap: wrap;&quot;&gt;Standort&lt;/span&gt;" style="shape=table;startSize=30;container=1;collapsible=1;childLayout=tableLayout;fixedRows=1;rowLines=0;fontStyle=1;align=center;resizeLast=1;html=1;" vertex="1" parent="1">
          <mxGeometry x="-40" y="520" width="400" height="120" as="geometry" />
        </mxCell>
        <mxCell id="LF_uzQrmGtcTdr1EB5Od-367" value="" style="shape=tableRow;horizontal=0;startSize=0;swimlaneHead=0;swimlaneBody=0;fillColor=none;collapsible=0;dropTarget=0;points=[[0,0.5],[1,0.5]];portConstraint=eastwest;top=0;left=0;right=0;bottom=1;spacingLeft=6;" vertex="1" parent="LF_uzQrmGtcTdr1EB5Od-366">
          <mxGeometry y="30" width="400" height="30" as="geometry" />
        </mxCell>
        <mxCell id="LF_uzQrmGtcTdr1EB5Od-368" value="Columnname" style="shape=partialRectangle;connectable=0;fillColor=none;top=0;left=0;bottom=0;right=0;align=left;spacingLeft=6;fontStyle=5;overflow=hidden;whiteSpace=wrap;html=1;" vertex="1" parent="LF_uzQrmGtcTdr1EB5Od-367">
          <mxGeometry width="119.99999999999977" height="30" as="geometry">
            <mxRectangle width="119.99999999999977" height="30" as="alternateBounds" />
          </mxGeometry>
        </mxCell>
        <mxCell id="LF_uzQrmGtcTdr1EB5Od-369" value="Type" style="shape=partialRectangle;connectable=0;fillColor=none;top=0;left=0;bottom=0;right=0;align=left;spacingLeft=6;fontStyle=5;overflow=hidden;whiteSpace=wrap;html=1;" vertex="1" parent="LF_uzQrmGtcTdr1EB5Od-367">
          <mxGeometry x="119.99999999999977" width="80.00000000000023" height="30" as="geometry">
            <mxRectangle width="80.00000000000023" height="30" as="alternateBounds" />
          </mxGeometry>
        </mxCell>
        <mxCell id="LF_uzQrmGtcTdr1EB5Od-370" value="PK" style="shape=partialRectangle;connectable=0;fillColor=none;top=0;left=0;bottom=0;right=0;align=left;spacingLeft=6;fontStyle=5;overflow=hidden;whiteSpace=wrap;html=1;" vertex="1" parent="LF_uzQrmGtcTdr1EB5Od-367">
          <mxGeometry x="200" width="40" height="30" as="geometry">
            <mxRectangle width="40" height="30" as="alternateBounds" />
          </mxGeometry>
        </mxCell>
        <mxCell id="LF_uzQrmGtcTdr1EB5Od-371" value="FK" style="shape=partialRectangle;connectable=0;fillColor=none;top=0;left=0;bottom=0;right=0;align=left;spacingLeft=6;fontStyle=5;overflow=hidden;whiteSpace=wrap;html=1;" vertex="1" parent="LF_uzQrmGtcTdr1EB5Od-367">
          <mxGeometry x="240" width="40" height="30" as="geometry">
            <mxRectangle width="40" height="30" as="alternateBounds" />
          </mxGeometry>
        </mxCell>
        <mxCell id="LF_uzQrmGtcTdr1EB5Od-372" value="UQ" style="shape=partialRectangle;connectable=0;fillColor=none;top=0;left=0;bottom=0;right=0;align=left;spacingLeft=6;fontStyle=5;overflow=hidden;whiteSpace=wrap;html=1;" vertex="1" parent="LF_uzQrmGtcTdr1EB5Od-367">
          <mxGeometry x="280" width="40" height="30" as="geometry">
            <mxRectangle width="40" height="30" as="alternateBounds" />
          </mxGeometry>
        </mxCell>
        <mxCell id="LF_uzQrmGtcTdr1EB5Od-373" value="AA" style="shape=partialRectangle;connectable=0;fillColor=none;top=0;left=0;bottom=0;right=0;align=left;spacingLeft=6;fontStyle=5;overflow=hidden;whiteSpace=wrap;html=1;" vertex="1" parent="LF_uzQrmGtcTdr1EB5Od-367">
          <mxGeometry x="320" width="40" height="30" as="geometry">
            <mxRectangle width="40" height="30" as="alternateBounds" />
          </mxGeometry>
        </mxCell>
        <mxCell id="LF_uzQrmGtcTdr1EB5Od-374" style="shape=partialRectangle;connectable=0;fillColor=none;top=0;left=0;bottom=0;right=0;align=left;spacingLeft=6;fontStyle=5;overflow=hidden;whiteSpace=wrap;html=1;" vertex="1" parent="LF_uzQrmGtcTdr1EB5Od-367">
          <mxGeometry x="360" width="40" height="30" as="geometry">
            <mxRectangle width="40" height="30" as="alternateBounds" />
          </mxGeometry>
        </mxCell>
        <mxCell id="LF_uzQrmGtcTdr1EB5Od-375" value="" style="shape=tableRow;horizontal=0;startSize=0;swimlaneHead=0;swimlaneBody=0;fillColor=none;collapsible=0;dropTarget=0;points=[[0,0.5],[1,0.5]];portConstraint=eastwest;top=0;left=0;right=0;bottom=0;" vertex="1" parent="LF_uzQrmGtcTdr1EB5Od-366">
          <mxGeometry y="60" width="400" height="30" as="geometry" />
        </mxCell>
        <mxCell id="LF_uzQrmGtcTdr1EB5Od-376" value="id" style="shape=partialRectangle;connectable=0;fillColor=none;top=0;left=0;bottom=0;right=0;align=left;spacingLeft=6;overflow=hidden;whiteSpace=wrap;html=1;" vertex="1" parent="LF_uzQrmGtcTdr1EB5Od-375">
          <mxGeometry width="119.99999999999977" height="30" as="geometry">
            <mxRectangle width="119.99999999999977" height="30" as="alternateBounds" />
          </mxGeometry>
        </mxCell>
        <mxCell id="LF_uzQrmGtcTdr1EB5Od-377" value="INTEGER" style="shape=partialRectangle;connectable=0;fillColor=none;top=0;left=0;bottom=0;right=0;align=center;spacingLeft=0;overflow=hidden;whiteSpace=wrap;html=1;" vertex="1" parent="LF_uzQrmGtcTdr1EB5Od-375">
          <mxGeometry x="119.99999999999977" width="80.00000000000023" height="30" as="geometry">
            <mxRectangle width="80.00000000000023" height="30" as="alternateBounds" />
          </mxGeometry>
        </mxCell>
        <mxCell id="LF_uzQrmGtcTdr1EB5Od-378" value="&lt;font style=&quot;font-size: 16px;&quot;&gt;✅&lt;/font&gt;" style="shape=partialRectangle;connectable=0;fillColor=none;top=0;left=0;bottom=0;right=0;align=center;spacingLeft=0;overflow=hidden;whiteSpace=wrap;html=1;fontSize=16;" vertex="1" parent="LF_uzQrmGtcTdr1EB5Od-375">
          <mxGeometry x="200" width="40" height="30" as="geometry">
            <mxRectangle width="40" height="30" as="alternateBounds" />
          </mxGeometry>
        </mxCell>
        <mxCell id="LF_uzQrmGtcTdr1EB5Od-379" style="shape=partialRectangle;connectable=0;fillColor=none;top=0;left=0;bottom=0;right=0;align=center;spacingLeft=0;overflow=hidden;whiteSpace=wrap;html=1;fontSize=16;" vertex="1" parent="LF_uzQrmGtcTdr1EB5Od-375">
          <mxGeometry x="240" width="40" height="30" as="geometry">
            <mxRectangle width="40" height="30" as="alternateBounds" />
          </mxGeometry>
        </mxCell>
        <mxCell id="LF_uzQrmGtcTdr1EB5Od-380" style="shape=partialRectangle;connectable=0;fillColor=none;top=0;left=0;bottom=0;right=0;align=center;spacingLeft=0;overflow=hidden;whiteSpace=wrap;html=1;fontSize=16;" vertex="1" parent="LF_uzQrmGtcTdr1EB5Od-375">
          <mxGeometry x="280" width="40" height="30" as="geometry">
            <mxRectangle width="40" height="30" as="alternateBounds" />
          </mxGeometry>
        </mxCell>
        <mxCell id="LF_uzQrmGtcTdr1EB5Od-381" value="✅" style="shape=partialRectangle;connectable=0;fillColor=none;top=0;left=0;bottom=0;right=0;align=center;spacingLeft=0;overflow=hidden;whiteSpace=wrap;html=1;fontSize=16;" vertex="1" parent="LF_uzQrmGtcTdr1EB5Od-375">
          <mxGeometry x="320" width="40" height="30" as="geometry">
            <mxRectangle width="40" height="30" as="alternateBounds" />
          </mxGeometry>
        </mxCell>
        <mxCell id="LF_uzQrmGtcTdr1EB5Od-382" style="shape=partialRectangle;connectable=0;fillColor=none;top=0;left=0;bottom=0;right=0;align=center;spacingLeft=0;overflow=hidden;whiteSpace=wrap;html=1;fontSize=16;" vertex="1" parent="LF_uzQrmGtcTdr1EB5Od-375">
          <mxGeometry x="360" width="40" height="30" as="geometry">
            <mxRectangle width="40" height="30" as="alternateBounds" />
          </mxGeometry>
        </mxCell>
        <mxCell id="LF_uzQrmGtcTdr1EB5Od-383" value="" style="shape=tableRow;horizontal=0;startSize=0;swimlaneHead=0;swimlaneBody=0;fillColor=none;collapsible=0;dropTarget=0;points=[[0,0.5],[1,0.5]];portConstraint=eastwest;top=0;left=0;right=0;bottom=0;" vertex="1" parent="LF_uzQrmGtcTdr1EB5Od-366">
          <mxGeometry y="90" width="400" height="30" as="geometry" />
        </mxCell>
        <mxCell id="LF_uzQrmGtcTdr1EB5Od-384" value="name" style="shape=partialRectangle;connectable=0;fillColor=none;top=0;left=0;bottom=0;right=0;align=left;spacingLeft=6;overflow=hidden;whiteSpace=wrap;html=1;" vertex="1" parent="LF_uzQrmGtcTdr1EB5Od-383">
          <mxGeometry width="119.99999999999977" height="30" as="geometry">
            <mxRectangle width="119.99999999999977" height="30" as="alternateBounds" />
          </mxGeometry>
        </mxCell>
        <mxCell id="LF_uzQrmGtcTdr1EB5Od-385" value="TEXT" style="shape=partialRectangle;connectable=0;fillColor=none;top=0;left=0;bottom=0;right=0;align=center;spacingLeft=0;overflow=hidden;whiteSpace=wrap;html=1;" vertex="1" parent="LF_uzQrmGtcTdr1EB5Od-383">
          <mxGeometry x="119.99999999999977" width="80.00000000000023" height="30" as="geometry">
            <mxRectangle width="80.00000000000023" height="30" as="alternateBounds" />
          </mxGeometry>
        </mxCell>
        <mxCell id="LF_uzQrmGtcTdr1EB5Od-386" style="shape=partialRectangle;connectable=0;fillColor=none;top=0;left=0;bottom=0;right=0;align=center;spacingLeft=0;overflow=hidden;whiteSpace=wrap;html=1;fontSize=16;" vertex="1" parent="LF_uzQrmGtcTdr1EB5Od-383">
          <mxGeometry x="200" width="40" height="30" as="geometry">
            <mxRectangle width="40" height="30" as="alternateBounds" />
          </mxGeometry>
        </mxCell>
        <mxCell id="LF_uzQrmGtcTdr1EB5Od-387" style="shape=partialRectangle;connectable=0;fillColor=none;top=0;left=0;bottom=0;right=0;align=center;spacingLeft=0;overflow=hidden;whiteSpace=wrap;html=1;fontSize=16;" vertex="1" parent="LF_uzQrmGtcTdr1EB5Od-383">
          <mxGeometry x="240" width="40" height="30" as="geometry">
            <mxRectangle width="40" height="30" as="alternateBounds" />
          </mxGeometry>
        </mxCell>
        <mxCell id="LF_uzQrmGtcTdr1EB5Od-388" value="✅" style="shape=partialRectangle;connectable=0;fillColor=none;top=0;left=0;bottom=0;right=0;align=center;spacingLeft=0;overflow=hidden;whiteSpace=wrap;html=1;fontSize=16;" vertex="1" parent="LF_uzQrmGtcTdr1EB5Od-383">
          <mxGeometry x="280" width="40" height="30" as="geometry">
            <mxRectangle width="40" height="30" as="alternateBounds" />
          </mxGeometry>
        </mxCell>
        <mxCell id="LF_uzQrmGtcTdr1EB5Od-389" style="shape=partialRectangle;connectable=0;fillColor=none;top=0;left=0;bottom=0;right=0;align=center;spacingLeft=0;overflow=hidden;whiteSpace=wrap;html=1;fontSize=16;" vertex="1" parent="LF_uzQrmGtcTdr1EB5Od-383">
          <mxGeometry x="320" width="40" height="30" as="geometry">
            <mxRectangle width="40" height="30" as="alternateBounds" />
          </mxGeometry>
        </mxCell>
        <mxCell id="LF_uzQrmGtcTdr1EB5Od-390" style="shape=partialRectangle;connectable=0;fillColor=none;top=0;left=0;bottom=0;right=0;align=center;spacingLeft=0;overflow=hidden;whiteSpace=wrap;html=1;fontSize=16;" vertex="1" parent="LF_uzQrmGtcTdr1EB5Od-383">
          <mxGeometry x="360" width="40" height="30" as="geometry">
            <mxRectangle width="40" height="30" as="alternateBounds" />
          </mxGeometry>
        </mxCell>
        <mxCell id="LF_uzQrmGtcTdr1EB5Od-468" style="edgeStyle=orthogonalEdgeStyle;shape=connector;rounded=0;orthogonalLoop=1;jettySize=auto;html=1;strokeColor=default;align=center;verticalAlign=middle;fontFamily=Helvetica;fontSize=11;fontColor=default;labelBackgroundColor=default;endArrow=none;endFill=0;" edge="1" parent="1" source="LF_uzQrmGtcTdr1EB5Od-393" target="LF_uzQrmGtcTdr1EB5Od-87">
          <mxGeometry relative="1" as="geometry">
            <Array as="points">
              <mxPoint x="440" y="720" />
              <mxPoint x="440" y="645" />
            </Array>
          </mxGeometry>
        </mxCell>
        <mxCell id="LF_uzQrmGtcTdr1EB5Od-393" value="&lt;span style=&quot;font-weight: 400; text-wrap: wrap;&quot;&gt;Fahrer&lt;/span&gt;" style="shape=table;startSize=30;container=1;collapsible=1;childLayout=tableLayout;fixedRows=1;rowLines=0;fontStyle=1;align=center;resizeLast=1;html=1;" vertex="1" parent="1">
          <mxGeometry x="-40" y="680" width="400" height="120" as="geometry" />
        </mxCell>
        <mxCell id="LF_uzQrmGtcTdr1EB5Od-394" value="" style="shape=tableRow;horizontal=0;startSize=0;swimlaneHead=0;swimlaneBody=0;fillColor=none;collapsible=0;dropTarget=0;points=[[0,0.5],[1,0.5]];portConstraint=eastwest;top=0;left=0;right=0;bottom=1;spacingLeft=6;" vertex="1" parent="LF_uzQrmGtcTdr1EB5Od-393">
          <mxGeometry y="30" width="400" height="30" as="geometry" />
        </mxCell>
        <mxCell id="LF_uzQrmGtcTdr1EB5Od-395" value="Columnname" style="shape=partialRectangle;connectable=0;fillColor=none;top=0;left=0;bottom=0;right=0;align=left;spacingLeft=6;fontStyle=5;overflow=hidden;whiteSpace=wrap;html=1;" vertex="1" parent="LF_uzQrmGtcTdr1EB5Od-394">
          <mxGeometry width="119.99999999999977" height="30" as="geometry">
            <mxRectangle width="119.99999999999977" height="30" as="alternateBounds" />
          </mxGeometry>
        </mxCell>
        <mxCell id="LF_uzQrmGtcTdr1EB5Od-396" value="Type" style="shape=partialRectangle;connectable=0;fillColor=none;top=0;left=0;bottom=0;right=0;align=left;spacingLeft=6;fontStyle=5;overflow=hidden;whiteSpace=wrap;html=1;" vertex="1" parent="LF_uzQrmGtcTdr1EB5Od-394">
          <mxGeometry x="119.99999999999977" width="80.00000000000023" height="30" as="geometry">
            <mxRectangle width="80.00000000000023" height="30" as="alternateBounds" />
          </mxGeometry>
        </mxCell>
        <mxCell id="LF_uzQrmGtcTdr1EB5Od-397" value="PK" style="shape=partialRectangle;connectable=0;fillColor=none;top=0;left=0;bottom=0;right=0;align=left;spacingLeft=6;fontStyle=5;overflow=hidden;whiteSpace=wrap;html=1;" vertex="1" parent="LF_uzQrmGtcTdr1EB5Od-394">
          <mxGeometry x="200" width="40" height="30" as="geometry">
            <mxRectangle width="40" height="30" as="alternateBounds" />
          </mxGeometry>
        </mxCell>
        <mxCell id="LF_uzQrmGtcTdr1EB5Od-398" value="FK" style="shape=partialRectangle;connectable=0;fillColor=none;top=0;left=0;bottom=0;right=0;align=left;spacingLeft=6;fontStyle=5;overflow=hidden;whiteSpace=wrap;html=1;" vertex="1" parent="LF_uzQrmGtcTdr1EB5Od-394">
          <mxGeometry x="240" width="40" height="30" as="geometry">
            <mxRectangle width="40" height="30" as="alternateBounds" />
          </mxGeometry>
        </mxCell>
        <mxCell id="LF_uzQrmGtcTdr1EB5Od-399" value="UQ" style="shape=partialRectangle;connectable=0;fillColor=none;top=0;left=0;bottom=0;right=0;align=left;spacingLeft=6;fontStyle=5;overflow=hidden;whiteSpace=wrap;html=1;" vertex="1" parent="LF_uzQrmGtcTdr1EB5Od-394">
          <mxGeometry x="280" width="40" height="30" as="geometry">
            <mxRectangle width="40" height="30" as="alternateBounds" />
          </mxGeometry>
        </mxCell>
        <mxCell id="LF_uzQrmGtcTdr1EB5Od-400" value="AA" style="shape=partialRectangle;connectable=0;fillColor=none;top=0;left=0;bottom=0;right=0;align=left;spacingLeft=6;fontStyle=5;overflow=hidden;whiteSpace=wrap;html=1;" vertex="1" parent="LF_uzQrmGtcTdr1EB5Od-394">
          <mxGeometry x="320" width="40" height="30" as="geometry">
            <mxRectangle width="40" height="30" as="alternateBounds" />
          </mxGeometry>
        </mxCell>
        <mxCell id="LF_uzQrmGtcTdr1EB5Od-401" style="shape=partialRectangle;connectable=0;fillColor=none;top=0;left=0;bottom=0;right=0;align=left;spacingLeft=6;fontStyle=5;overflow=hidden;whiteSpace=wrap;html=1;" vertex="1" parent="LF_uzQrmGtcTdr1EB5Od-394">
          <mxGeometry x="360" width="40" height="30" as="geometry">
            <mxRectangle width="40" height="30" as="alternateBounds" />
          </mxGeometry>
        </mxCell>
        <mxCell id="LF_uzQrmGtcTdr1EB5Od-402" value="" style="shape=tableRow;horizontal=0;startSize=0;swimlaneHead=0;swimlaneBody=0;fillColor=none;collapsible=0;dropTarget=0;points=[[0,0.5],[1,0.5]];portConstraint=eastwest;top=0;left=0;right=0;bottom=0;" vertex="1" parent="LF_uzQrmGtcTdr1EB5Od-393">
          <mxGeometry y="60" width="400" height="30" as="geometry" />
        </mxCell>
        <mxCell id="LF_uzQrmGtcTdr1EB5Od-403" value="id" style="shape=partialRectangle;connectable=0;fillColor=none;top=0;left=0;bottom=0;right=0;align=left;spacingLeft=6;overflow=hidden;whiteSpace=wrap;html=1;" vertex="1" parent="LF_uzQrmGtcTdr1EB5Od-402">
          <mxGeometry width="119.99999999999977" height="30" as="geometry">
            <mxRectangle width="119.99999999999977" height="30" as="alternateBounds" />
          </mxGeometry>
        </mxCell>
        <mxCell id="LF_uzQrmGtcTdr1EB5Od-404" value="INTEGER" style="shape=partialRectangle;connectable=0;fillColor=none;top=0;left=0;bottom=0;right=0;align=center;spacingLeft=0;overflow=hidden;whiteSpace=wrap;html=1;" vertex="1" parent="LF_uzQrmGtcTdr1EB5Od-402">
          <mxGeometry x="119.99999999999977" width="80.00000000000023" height="30" as="geometry">
            <mxRectangle width="80.00000000000023" height="30" as="alternateBounds" />
          </mxGeometry>
        </mxCell>
        <mxCell id="LF_uzQrmGtcTdr1EB5Od-405" value="&lt;font style=&quot;font-size: 16px;&quot;&gt;✅&lt;/font&gt;" style="shape=partialRectangle;connectable=0;fillColor=none;top=0;left=0;bottom=0;right=0;align=center;spacingLeft=0;overflow=hidden;whiteSpace=wrap;html=1;fontSize=16;" vertex="1" parent="LF_uzQrmGtcTdr1EB5Od-402">
          <mxGeometry x="200" width="40" height="30" as="geometry">
            <mxRectangle width="40" height="30" as="alternateBounds" />
          </mxGeometry>
        </mxCell>
        <mxCell id="LF_uzQrmGtcTdr1EB5Od-406" style="shape=partialRectangle;connectable=0;fillColor=none;top=0;left=0;bottom=0;right=0;align=center;spacingLeft=0;overflow=hidden;whiteSpace=wrap;html=1;fontSize=16;" vertex="1" parent="LF_uzQrmGtcTdr1EB5Od-402">
          <mxGeometry x="240" width="40" height="30" as="geometry">
            <mxRectangle width="40" height="30" as="alternateBounds" />
          </mxGeometry>
        </mxCell>
        <mxCell id="LF_uzQrmGtcTdr1EB5Od-407" style="shape=partialRectangle;connectable=0;fillColor=none;top=0;left=0;bottom=0;right=0;align=center;spacingLeft=0;overflow=hidden;whiteSpace=wrap;html=1;fontSize=16;" vertex="1" parent="LF_uzQrmGtcTdr1EB5Od-402">
          <mxGeometry x="280" width="40" height="30" as="geometry">
            <mxRectangle width="40" height="30" as="alternateBounds" />
          </mxGeometry>
        </mxCell>
        <mxCell id="LF_uzQrmGtcTdr1EB5Od-408" value="✅" style="shape=partialRectangle;connectable=0;fillColor=none;top=0;left=0;bottom=0;right=0;align=center;spacingLeft=0;overflow=hidden;whiteSpace=wrap;html=1;fontSize=16;" vertex="1" parent="LF_uzQrmGtcTdr1EB5Od-402">
          <mxGeometry x="320" width="40" height="30" as="geometry">
            <mxRectangle width="40" height="30" as="alternateBounds" />
          </mxGeometry>
        </mxCell>
        <mxCell id="LF_uzQrmGtcTdr1EB5Od-409" style="shape=partialRectangle;connectable=0;fillColor=none;top=0;left=0;bottom=0;right=0;align=center;spacingLeft=0;overflow=hidden;whiteSpace=wrap;html=1;fontSize=16;" vertex="1" parent="LF_uzQrmGtcTdr1EB5Od-402">
          <mxGeometry x="360" width="40" height="30" as="geometry">
            <mxRectangle width="40" height="30" as="alternateBounds" />
          </mxGeometry>
        </mxCell>
        <mxCell id="LF_uzQrmGtcTdr1EB5Od-410" value="" style="shape=tableRow;horizontal=0;startSize=0;swimlaneHead=0;swimlaneBody=0;fillColor=none;collapsible=0;dropTarget=0;points=[[0,0.5],[1,0.5]];portConstraint=eastwest;top=0;left=0;right=0;bottom=0;" vertex="1" parent="LF_uzQrmGtcTdr1EB5Od-393">
          <mxGeometry y="90" width="400" height="30" as="geometry" />
        </mxCell>
        <mxCell id="LF_uzQrmGtcTdr1EB5Od-411" value="name" style="shape=partialRectangle;connectable=0;fillColor=none;top=0;left=0;bottom=0;right=0;align=left;spacingLeft=6;overflow=hidden;whiteSpace=wrap;html=1;" vertex="1" parent="LF_uzQrmGtcTdr1EB5Od-410">
          <mxGeometry width="119.99999999999977" height="30" as="geometry">
            <mxRectangle width="119.99999999999977" height="30" as="alternateBounds" />
          </mxGeometry>
        </mxCell>
        <mxCell id="LF_uzQrmGtcTdr1EB5Od-412" value="TEXT" style="shape=partialRectangle;connectable=0;fillColor=none;top=0;left=0;bottom=0;right=0;align=center;spacingLeft=0;overflow=hidden;whiteSpace=wrap;html=1;" vertex="1" parent="LF_uzQrmGtcTdr1EB5Od-410">
          <mxGeometry x="119.99999999999977" width="80.00000000000023" height="30" as="geometry">
            <mxRectangle width="80.00000000000023" height="30" as="alternateBounds" />
          </mxGeometry>
        </mxCell>
        <mxCell id="LF_uzQrmGtcTdr1EB5Od-413" style="shape=partialRectangle;connectable=0;fillColor=none;top=0;left=0;bottom=0;right=0;align=center;spacingLeft=0;overflow=hidden;whiteSpace=wrap;html=1;fontSize=16;" vertex="1" parent="LF_uzQrmGtcTdr1EB5Od-410">
          <mxGeometry x="200" width="40" height="30" as="geometry">
            <mxRectangle width="40" height="30" as="alternateBounds" />
          </mxGeometry>
        </mxCell>
        <mxCell id="LF_uzQrmGtcTdr1EB5Od-414" style="shape=partialRectangle;connectable=0;fillColor=none;top=0;left=0;bottom=0;right=0;align=center;spacingLeft=0;overflow=hidden;whiteSpace=wrap;html=1;fontSize=16;" vertex="1" parent="LF_uzQrmGtcTdr1EB5Od-410">
          <mxGeometry x="240" width="40" height="30" as="geometry">
            <mxRectangle width="40" height="30" as="alternateBounds" />
          </mxGeometry>
        </mxCell>
        <mxCell id="LF_uzQrmGtcTdr1EB5Od-415" value="✅" style="shape=partialRectangle;connectable=0;fillColor=none;top=0;left=0;bottom=0;right=0;align=center;spacingLeft=0;overflow=hidden;whiteSpace=wrap;html=1;fontSize=16;" vertex="1" parent="LF_uzQrmGtcTdr1EB5Od-410">
          <mxGeometry x="280" width="40" height="30" as="geometry">
            <mxRectangle width="40" height="30" as="alternateBounds" />
          </mxGeometry>
        </mxCell>
        <mxCell id="LF_uzQrmGtcTdr1EB5Od-416" style="shape=partialRectangle;connectable=0;fillColor=none;top=0;left=0;bottom=0;right=0;align=center;spacingLeft=0;overflow=hidden;whiteSpace=wrap;html=1;fontSize=16;" vertex="1" parent="LF_uzQrmGtcTdr1EB5Od-410">
          <mxGeometry x="320" width="40" height="30" as="geometry">
            <mxRectangle width="40" height="30" as="alternateBounds" />
          </mxGeometry>
        </mxCell>
        <mxCell id="LF_uzQrmGtcTdr1EB5Od-417" style="shape=partialRectangle;connectable=0;fillColor=none;top=0;left=0;bottom=0;right=0;align=center;spacingLeft=0;overflow=hidden;whiteSpace=wrap;html=1;fontSize=16;" vertex="1" parent="LF_uzQrmGtcTdr1EB5Od-410">
          <mxGeometry x="360" width="40" height="30" as="geometry">
            <mxRectangle width="40" height="30" as="alternateBounds" />
          </mxGeometry>
        </mxCell>
        <mxCell id="LF_uzQrmGtcTdr1EB5Od-469" style="edgeStyle=orthogonalEdgeStyle;shape=connector;rounded=0;orthogonalLoop=1;jettySize=auto;html=1;strokeColor=default;align=center;verticalAlign=middle;fontFamily=Helvetica;fontSize=11;fontColor=default;labelBackgroundColor=default;endArrow=none;endFill=0;" edge="1" parent="1" source="LF_uzQrmGtcTdr1EB5Od-418" target="LF_uzQrmGtcTdr1EB5Od-102">
          <mxGeometry relative="1" as="geometry">
            <Array as="points">
              <mxPoint x="500" y="880" />
              <mxPoint x="500" y="675" />
            </Array>
          </mxGeometry>
        </mxCell>
        <mxCell id="LF_uzQrmGtcTdr1EB5Od-418" value="&lt;span style=&quot;font-weight: 400; text-wrap: wrap;&quot;&gt;Fahrzeugtyp&lt;/span&gt;" style="shape=table;startSize=30;container=1;collapsible=1;childLayout=tableLayout;fixedRows=1;rowLines=0;fontStyle=1;align=center;resizeLast=1;html=1;" vertex="1" parent="1">
          <mxGeometry x="-40" y="840" width="400" height="120" as="geometry" />
        </mxCell>
        <mxCell id="LF_uzQrmGtcTdr1EB5Od-419" value="" style="shape=tableRow;horizontal=0;startSize=0;swimlaneHead=0;swimlaneBody=0;fillColor=none;collapsible=0;dropTarget=0;points=[[0,0.5],[1,0.5]];portConstraint=eastwest;top=0;left=0;right=0;bottom=1;spacingLeft=6;" vertex="1" parent="LF_uzQrmGtcTdr1EB5Od-418">
          <mxGeometry y="30" width="400" height="30" as="geometry" />
        </mxCell>
        <mxCell id="LF_uzQrmGtcTdr1EB5Od-420" value="Columnname" style="shape=partialRectangle;connectable=0;fillColor=none;top=0;left=0;bottom=0;right=0;align=left;spacingLeft=6;fontStyle=5;overflow=hidden;whiteSpace=wrap;html=1;" vertex="1" parent="LF_uzQrmGtcTdr1EB5Od-419">
          <mxGeometry width="119.99999999999977" height="30" as="geometry">
            <mxRectangle width="119.99999999999977" height="30" as="alternateBounds" />
          </mxGeometry>
        </mxCell>
        <mxCell id="LF_uzQrmGtcTdr1EB5Od-421" value="Type" style="shape=partialRectangle;connectable=0;fillColor=none;top=0;left=0;bottom=0;right=0;align=left;spacingLeft=6;fontStyle=5;overflow=hidden;whiteSpace=wrap;html=1;" vertex="1" parent="LF_uzQrmGtcTdr1EB5Od-419">
          <mxGeometry x="119.99999999999977" width="80.00000000000023" height="30" as="geometry">
            <mxRectangle width="80.00000000000023" height="30" as="alternateBounds" />
          </mxGeometry>
        </mxCell>
        <mxCell id="LF_uzQrmGtcTdr1EB5Od-422" value="PK" style="shape=partialRectangle;connectable=0;fillColor=none;top=0;left=0;bottom=0;right=0;align=left;spacingLeft=6;fontStyle=5;overflow=hidden;whiteSpace=wrap;html=1;" vertex="1" parent="LF_uzQrmGtcTdr1EB5Od-419">
          <mxGeometry x="200" width="40" height="30" as="geometry">
            <mxRectangle width="40" height="30" as="alternateBounds" />
          </mxGeometry>
        </mxCell>
        <mxCell id="LF_uzQrmGtcTdr1EB5Od-423" value="FK" style="shape=partialRectangle;connectable=0;fillColor=none;top=0;left=0;bottom=0;right=0;align=left;spacingLeft=6;fontStyle=5;overflow=hidden;whiteSpace=wrap;html=1;" vertex="1" parent="LF_uzQrmGtcTdr1EB5Od-419">
          <mxGeometry x="240" width="40" height="30" as="geometry">
            <mxRectangle width="40" height="30" as="alternateBounds" />
          </mxGeometry>
        </mxCell>
        <mxCell id="LF_uzQrmGtcTdr1EB5Od-424" value="UQ" style="shape=partialRectangle;connectable=0;fillColor=none;top=0;left=0;bottom=0;right=0;align=left;spacingLeft=6;fontStyle=5;overflow=hidden;whiteSpace=wrap;html=1;" vertex="1" parent="LF_uzQrmGtcTdr1EB5Od-419">
          <mxGeometry x="280" width="40" height="30" as="geometry">
            <mxRectangle width="40" height="30" as="alternateBounds" />
          </mxGeometry>
        </mxCell>
        <mxCell id="LF_uzQrmGtcTdr1EB5Od-425" value="AA" style="shape=partialRectangle;connectable=0;fillColor=none;top=0;left=0;bottom=0;right=0;align=left;spacingLeft=6;fontStyle=5;overflow=hidden;whiteSpace=wrap;html=1;" vertex="1" parent="LF_uzQrmGtcTdr1EB5Od-419">
          <mxGeometry x="320" width="40" height="30" as="geometry">
            <mxRectangle width="40" height="30" as="alternateBounds" />
          </mxGeometry>
        </mxCell>
        <mxCell id="LF_uzQrmGtcTdr1EB5Od-426" style="shape=partialRectangle;connectable=0;fillColor=none;top=0;left=0;bottom=0;right=0;align=left;spacingLeft=6;fontStyle=5;overflow=hidden;whiteSpace=wrap;html=1;" vertex="1" parent="LF_uzQrmGtcTdr1EB5Od-419">
          <mxGeometry x="360" width="40" height="30" as="geometry">
            <mxRectangle width="40" height="30" as="alternateBounds" />
          </mxGeometry>
        </mxCell>
        <mxCell id="LF_uzQrmGtcTdr1EB5Od-427" value="" style="shape=tableRow;horizontal=0;startSize=0;swimlaneHead=0;swimlaneBody=0;fillColor=none;collapsible=0;dropTarget=0;points=[[0,0.5],[1,0.5]];portConstraint=eastwest;top=0;left=0;right=0;bottom=0;" vertex="1" parent="LF_uzQrmGtcTdr1EB5Od-418">
          <mxGeometry y="60" width="400" height="30" as="geometry" />
        </mxCell>
        <mxCell id="LF_uzQrmGtcTdr1EB5Od-428" value="id" style="shape=partialRectangle;connectable=0;fillColor=none;top=0;left=0;bottom=0;right=0;align=left;spacingLeft=6;overflow=hidden;whiteSpace=wrap;html=1;" vertex="1" parent="LF_uzQrmGtcTdr1EB5Od-427">
          <mxGeometry width="119.99999999999977" height="30" as="geometry">
            <mxRectangle width="119.99999999999977" height="30" as="alternateBounds" />
          </mxGeometry>
        </mxCell>
        <mxCell id="LF_uzQrmGtcTdr1EB5Od-429" value="INTEGER" style="shape=partialRectangle;connectable=0;fillColor=none;top=0;left=0;bottom=0;right=0;align=center;spacingLeft=0;overflow=hidden;whiteSpace=wrap;html=1;" vertex="1" parent="LF_uzQrmGtcTdr1EB5Od-427">
          <mxGeometry x="119.99999999999977" width="80.00000000000023" height="30" as="geometry">
            <mxRectangle width="80.00000000000023" height="30" as="alternateBounds" />
          </mxGeometry>
        </mxCell>
        <mxCell id="LF_uzQrmGtcTdr1EB5Od-430" value="&lt;font style=&quot;font-size: 16px;&quot;&gt;✅&lt;/font&gt;" style="shape=partialRectangle;connectable=0;fillColor=none;top=0;left=0;bottom=0;right=0;align=center;spacingLeft=0;overflow=hidden;whiteSpace=wrap;html=1;fontSize=16;" vertex="1" parent="LF_uzQrmGtcTdr1EB5Od-427">
          <mxGeometry x="200" width="40" height="30" as="geometry">
            <mxRectangle width="40" height="30" as="alternateBounds" />
          </mxGeometry>
        </mxCell>
        <mxCell id="LF_uzQrmGtcTdr1EB5Od-431" style="shape=partialRectangle;connectable=0;fillColor=none;top=0;left=0;bottom=0;right=0;align=center;spacingLeft=0;overflow=hidden;whiteSpace=wrap;html=1;fontSize=16;" vertex="1" parent="LF_uzQrmGtcTdr1EB5Od-427">
          <mxGeometry x="240" width="40" height="30" as="geometry">
            <mxRectangle width="40" height="30" as="alternateBounds" />
          </mxGeometry>
        </mxCell>
        <mxCell id="LF_uzQrmGtcTdr1EB5Od-432" style="shape=partialRectangle;connectable=0;fillColor=none;top=0;left=0;bottom=0;right=0;align=center;spacingLeft=0;overflow=hidden;whiteSpace=wrap;html=1;fontSize=16;" vertex="1" parent="LF_uzQrmGtcTdr1EB5Od-427">
          <mxGeometry x="280" width="40" height="30" as="geometry">
            <mxRectangle width="40" height="30" as="alternateBounds" />
          </mxGeometry>
        </mxCell>
        <mxCell id="LF_uzQrmGtcTdr1EB5Od-433" value="✅" style="shape=partialRectangle;connectable=0;fillColor=none;top=0;left=0;bottom=0;right=0;align=center;spacingLeft=0;overflow=hidden;whiteSpace=wrap;html=1;fontSize=16;" vertex="1" parent="LF_uzQrmGtcTdr1EB5Od-427">
          <mxGeometry x="320" width="40" height="30" as="geometry">
            <mxRectangle width="40" height="30" as="alternateBounds" />
          </mxGeometry>
        </mxCell>
        <mxCell id="LF_uzQrmGtcTdr1EB5Od-434" style="shape=partialRectangle;connectable=0;fillColor=none;top=0;left=0;bottom=0;right=0;align=center;spacingLeft=0;overflow=hidden;whiteSpace=wrap;html=1;fontSize=16;" vertex="1" parent="LF_uzQrmGtcTdr1EB5Od-427">
          <mxGeometry x="360" width="40" height="30" as="geometry">
            <mxRectangle width="40" height="30" as="alternateBounds" />
          </mxGeometry>
        </mxCell>
        <mxCell id="LF_uzQrmGtcTdr1EB5Od-435" value="" style="shape=tableRow;horizontal=0;startSize=0;swimlaneHead=0;swimlaneBody=0;fillColor=none;collapsible=0;dropTarget=0;points=[[0,0.5],[1,0.5]];portConstraint=eastwest;top=0;left=0;right=0;bottom=0;" vertex="1" parent="LF_uzQrmGtcTdr1EB5Od-418">
          <mxGeometry y="90" width="400" height="30" as="geometry" />
        </mxCell>
        <mxCell id="LF_uzQrmGtcTdr1EB5Od-436" value="name" style="shape=partialRectangle;connectable=0;fillColor=none;top=0;left=0;bottom=0;right=0;align=left;spacingLeft=6;overflow=hidden;whiteSpace=wrap;html=1;" vertex="1" parent="LF_uzQrmGtcTdr1EB5Od-435">
          <mxGeometry width="119.99999999999977" height="30" as="geometry">
            <mxRectangle width="119.99999999999977" height="30" as="alternateBounds" />
          </mxGeometry>
        </mxCell>
        <mxCell id="LF_uzQrmGtcTdr1EB5Od-437" value="TEXT" style="shape=partialRectangle;connectable=0;fillColor=none;top=0;left=0;bottom=0;right=0;align=center;spacingLeft=0;overflow=hidden;whiteSpace=wrap;html=1;" vertex="1" parent="LF_uzQrmGtcTdr1EB5Od-435">
          <mxGeometry x="119.99999999999977" width="80.00000000000023" height="30" as="geometry">
            <mxRectangle width="80.00000000000023" height="30" as="alternateBounds" />
          </mxGeometry>
        </mxCell>
        <mxCell id="LF_uzQrmGtcTdr1EB5Od-438" style="shape=partialRectangle;connectable=0;fillColor=none;top=0;left=0;bottom=0;right=0;align=center;spacingLeft=0;overflow=hidden;whiteSpace=wrap;html=1;fontSize=16;" vertex="1" parent="LF_uzQrmGtcTdr1EB5Od-435">
          <mxGeometry x="200" width="40" height="30" as="geometry">
            <mxRectangle width="40" height="30" as="alternateBounds" />
          </mxGeometry>
        </mxCell>
        <mxCell id="LF_uzQrmGtcTdr1EB5Od-439" style="shape=partialRectangle;connectable=0;fillColor=none;top=0;left=0;bottom=0;right=0;align=center;spacingLeft=0;overflow=hidden;whiteSpace=wrap;html=1;fontSize=16;" vertex="1" parent="LF_uzQrmGtcTdr1EB5Od-435">
          <mxGeometry x="240" width="40" height="30" as="geometry">
            <mxRectangle width="40" height="30" as="alternateBounds" />
          </mxGeometry>
        </mxCell>
        <mxCell id="LF_uzQrmGtcTdr1EB5Od-440" value="✅" style="shape=partialRectangle;connectable=0;fillColor=none;top=0;left=0;bottom=0;right=0;align=center;spacingLeft=0;overflow=hidden;whiteSpace=wrap;html=1;fontSize=16;" vertex="1" parent="LF_uzQrmGtcTdr1EB5Od-435">
          <mxGeometry x="280" width="40" height="30" as="geometry">
            <mxRectangle width="40" height="30" as="alternateBounds" />
          </mxGeometry>
        </mxCell>
        <mxCell id="LF_uzQrmGtcTdr1EB5Od-441" style="shape=partialRectangle;connectable=0;fillColor=none;top=0;left=0;bottom=0;right=0;align=center;spacingLeft=0;overflow=hidden;whiteSpace=wrap;html=1;fontSize=16;" vertex="1" parent="LF_uzQrmGtcTdr1EB5Od-435">
          <mxGeometry x="320" width="40" height="30" as="geometry">
            <mxRectangle width="40" height="30" as="alternateBounds" />
          </mxGeometry>
        </mxCell>
        <mxCell id="LF_uzQrmGtcTdr1EB5Od-442" style="shape=partialRectangle;connectable=0;fillColor=none;top=0;left=0;bottom=0;right=0;align=center;spacingLeft=0;overflow=hidden;whiteSpace=wrap;html=1;fontSize=16;" vertex="1" parent="LF_uzQrmGtcTdr1EB5Od-435">
          <mxGeometry x="360" width="40" height="30" as="geometry">
            <mxRectangle width="40" height="30" as="alternateBounds" />
          </mxGeometry>
        </mxCell>
        <mxCell id="LF_uzQrmGtcTdr1EB5Od-470" style="edgeStyle=orthogonalEdgeStyle;shape=connector;rounded=0;orthogonalLoop=1;jettySize=auto;html=1;entryX=0;entryY=0.5;entryDx=0;entryDy=0;strokeColor=default;align=center;verticalAlign=middle;fontFamily=Helvetica;fontSize=11;fontColor=default;labelBackgroundColor=default;endArrow=none;endFill=0;" edge="1" parent="1" source="LF_uzQrmGtcTdr1EB5Od-443" target="LF_uzQrmGtcTdr1EB5Od-110">
          <mxGeometry relative="1" as="geometry">
            <Array as="points">
              <mxPoint x="530" y="1040" />
              <mxPoint x="530" y="705" />
            </Array>
          </mxGeometry>
        </mxCell>
        <mxCell id="LF_uzQrmGtcTdr1EB5Od-443" value="&lt;span style=&quot;font-weight: 400; text-wrap: wrap;&quot;&gt;Status&lt;/span&gt;" style="shape=table;startSize=30;container=1;collapsible=1;childLayout=tableLayout;fixedRows=1;rowLines=0;fontStyle=1;align=center;resizeLast=1;html=1;" vertex="1" parent="1">
          <mxGeometry x="-40" y="1000" width="400" height="120" as="geometry" />
        </mxCell>
        <mxCell id="LF_uzQrmGtcTdr1EB5Od-444" value="" style="shape=tableRow;horizontal=0;startSize=0;swimlaneHead=0;swimlaneBody=0;fillColor=none;collapsible=0;dropTarget=0;points=[[0,0.5],[1,0.5]];portConstraint=eastwest;top=0;left=0;right=0;bottom=1;spacingLeft=6;" vertex="1" parent="LF_uzQrmGtcTdr1EB5Od-443">
          <mxGeometry y="30" width="400" height="30" as="geometry" />
        </mxCell>
        <mxCell id="LF_uzQrmGtcTdr1EB5Od-445" value="Columnname" style="shape=partialRectangle;connectable=0;fillColor=none;top=0;left=0;bottom=0;right=0;align=left;spacingLeft=6;fontStyle=5;overflow=hidden;whiteSpace=wrap;html=1;" vertex="1" parent="LF_uzQrmGtcTdr1EB5Od-444">
          <mxGeometry width="119.99999999999977" height="30" as="geometry">
            <mxRectangle width="119.99999999999977" height="30" as="alternateBounds" />
          </mxGeometry>
        </mxCell>
        <mxCell id="LF_uzQrmGtcTdr1EB5Od-446" value="Type" style="shape=partialRectangle;connectable=0;fillColor=none;top=0;left=0;bottom=0;right=0;align=left;spacingLeft=6;fontStyle=5;overflow=hidden;whiteSpace=wrap;html=1;" vertex="1" parent="LF_uzQrmGtcTdr1EB5Od-444">
          <mxGeometry x="119.99999999999977" width="80.00000000000023" height="30" as="geometry">
            <mxRectangle width="80.00000000000023" height="30" as="alternateBounds" />
          </mxGeometry>
        </mxCell>
        <mxCell id="LF_uzQrmGtcTdr1EB5Od-447" value="PK" style="shape=partialRectangle;connectable=0;fillColor=none;top=0;left=0;bottom=0;right=0;align=left;spacingLeft=6;fontStyle=5;overflow=hidden;whiteSpace=wrap;html=1;" vertex="1" parent="LF_uzQrmGtcTdr1EB5Od-444">
          <mxGeometry x="200" width="40" height="30" as="geometry">
            <mxRectangle width="40" height="30" as="alternateBounds" />
          </mxGeometry>
        </mxCell>
        <mxCell id="LF_uzQrmGtcTdr1EB5Od-448" value="FK" style="shape=partialRectangle;connectable=0;fillColor=none;top=0;left=0;bottom=0;right=0;align=left;spacingLeft=6;fontStyle=5;overflow=hidden;whiteSpace=wrap;html=1;" vertex="1" parent="LF_uzQrmGtcTdr1EB5Od-444">
          <mxGeometry x="240" width="40" height="30" as="geometry">
            <mxRectangle width="40" height="30" as="alternateBounds" />
          </mxGeometry>
        </mxCell>
        <mxCell id="LF_uzQrmGtcTdr1EB5Od-449" value="UQ" style="shape=partialRectangle;connectable=0;fillColor=none;top=0;left=0;bottom=0;right=0;align=left;spacingLeft=6;fontStyle=5;overflow=hidden;whiteSpace=wrap;html=1;" vertex="1" parent="LF_uzQrmGtcTdr1EB5Od-444">
          <mxGeometry x="280" width="40" height="30" as="geometry">
            <mxRectangle width="40" height="30" as="alternateBounds" />
          </mxGeometry>
        </mxCell>
        <mxCell id="LF_uzQrmGtcTdr1EB5Od-450" value="AA" style="shape=partialRectangle;connectable=0;fillColor=none;top=0;left=0;bottom=0;right=0;align=left;spacingLeft=6;fontStyle=5;overflow=hidden;whiteSpace=wrap;html=1;" vertex="1" parent="LF_uzQrmGtcTdr1EB5Od-444">
          <mxGeometry x="320" width="40" height="30" as="geometry">
            <mxRectangle width="40" height="30" as="alternateBounds" />
          </mxGeometry>
        </mxCell>
        <mxCell id="LF_uzQrmGtcTdr1EB5Od-451" style="shape=partialRectangle;connectable=0;fillColor=none;top=0;left=0;bottom=0;right=0;align=left;spacingLeft=6;fontStyle=5;overflow=hidden;whiteSpace=wrap;html=1;" vertex="1" parent="LF_uzQrmGtcTdr1EB5Od-444">
          <mxGeometry x="360" width="40" height="30" as="geometry">
            <mxRectangle width="40" height="30" as="alternateBounds" />
          </mxGeometry>
        </mxCell>
        <mxCell id="LF_uzQrmGtcTdr1EB5Od-452" value="" style="shape=tableRow;horizontal=0;startSize=0;swimlaneHead=0;swimlaneBody=0;fillColor=none;collapsible=0;dropTarget=0;points=[[0,0.5],[1,0.5]];portConstraint=eastwest;top=0;left=0;right=0;bottom=0;" vertex="1" parent="LF_uzQrmGtcTdr1EB5Od-443">
          <mxGeometry y="60" width="400" height="30" as="geometry" />
        </mxCell>
        <mxCell id="LF_uzQrmGtcTdr1EB5Od-453" value="id" style="shape=partialRectangle;connectable=0;fillColor=none;top=0;left=0;bottom=0;right=0;align=left;spacingLeft=6;overflow=hidden;whiteSpace=wrap;html=1;" vertex="1" parent="LF_uzQrmGtcTdr1EB5Od-452">
          <mxGeometry width="119.99999999999977" height="30" as="geometry">
            <mxRectangle width="119.99999999999977" height="30" as="alternateBounds" />
          </mxGeometry>
        </mxCell>
        <mxCell id="LF_uzQrmGtcTdr1EB5Od-454" value="INTEGER" style="shape=partialRectangle;connectable=0;fillColor=none;top=0;left=0;bottom=0;right=0;align=center;spacingLeft=0;overflow=hidden;whiteSpace=wrap;html=1;" vertex="1" parent="LF_uzQrmGtcTdr1EB5Od-452">
          <mxGeometry x="119.99999999999977" width="80.00000000000023" height="30" as="geometry">
            <mxRectangle width="80.00000000000023" height="30" as="alternateBounds" />
          </mxGeometry>
        </mxCell>
        <mxCell id="LF_uzQrmGtcTdr1EB5Od-455" value="&lt;font style=&quot;font-size: 16px;&quot;&gt;✅&lt;/font&gt;" style="shape=partialRectangle;connectable=0;fillColor=none;top=0;left=0;bottom=0;right=0;align=center;spacingLeft=0;overflow=hidden;whiteSpace=wrap;html=1;fontSize=16;" vertex="1" parent="LF_uzQrmGtcTdr1EB5Od-452">
          <mxGeometry x="200" width="40" height="30" as="geometry">
            <mxRectangle width="40" height="30" as="alternateBounds" />
          </mxGeometry>
        </mxCell>
        <mxCell id="LF_uzQrmGtcTdr1EB5Od-456" style="shape=partialRectangle;connectable=0;fillColor=none;top=0;left=0;bottom=0;right=0;align=center;spacingLeft=0;overflow=hidden;whiteSpace=wrap;html=1;fontSize=16;" vertex="1" parent="LF_uzQrmGtcTdr1EB5Od-452">
          <mxGeometry x="240" width="40" height="30" as="geometry">
            <mxRectangle width="40" height="30" as="alternateBounds" />
          </mxGeometry>
        </mxCell>
        <mxCell id="LF_uzQrmGtcTdr1EB5Od-457" style="shape=partialRectangle;connectable=0;fillColor=none;top=0;left=0;bottom=0;right=0;align=center;spacingLeft=0;overflow=hidden;whiteSpace=wrap;html=1;fontSize=16;" vertex="1" parent="LF_uzQrmGtcTdr1EB5Od-452">
          <mxGeometry x="280" width="40" height="30" as="geometry">
            <mxRectangle width="40" height="30" as="alternateBounds" />
          </mxGeometry>
        </mxCell>
        <mxCell id="LF_uzQrmGtcTdr1EB5Od-458" value="✅" style="shape=partialRectangle;connectable=0;fillColor=none;top=0;left=0;bottom=0;right=0;align=center;spacingLeft=0;overflow=hidden;whiteSpace=wrap;html=1;fontSize=16;" vertex="1" parent="LF_uzQrmGtcTdr1EB5Od-452">
          <mxGeometry x="320" width="40" height="30" as="geometry">
            <mxRectangle width="40" height="30" as="alternateBounds" />
          </mxGeometry>
        </mxCell>
        <mxCell id="LF_uzQrmGtcTdr1EB5Od-459" style="shape=partialRectangle;connectable=0;fillColor=none;top=0;left=0;bottom=0;right=0;align=center;spacingLeft=0;overflow=hidden;whiteSpace=wrap;html=1;fontSize=16;" vertex="1" parent="LF_uzQrmGtcTdr1EB5Od-452">
          <mxGeometry x="360" width="40" height="30" as="geometry">
            <mxRectangle width="40" height="30" as="alternateBounds" />
          </mxGeometry>
        </mxCell>
        <mxCell id="LF_uzQrmGtcTdr1EB5Od-460" value="" style="shape=tableRow;horizontal=0;startSize=0;swimlaneHead=0;swimlaneBody=0;fillColor=none;collapsible=0;dropTarget=0;points=[[0,0.5],[1,0.5]];portConstraint=eastwest;top=0;left=0;right=0;bottom=0;" vertex="1" parent="LF_uzQrmGtcTdr1EB5Od-443">
          <mxGeometry y="90" width="400" height="30" as="geometry" />
        </mxCell>
        <mxCell id="LF_uzQrmGtcTdr1EB5Od-461" value="name" style="shape=partialRectangle;connectable=0;fillColor=none;top=0;left=0;bottom=0;right=0;align=left;spacingLeft=6;overflow=hidden;whiteSpace=wrap;html=1;" vertex="1" parent="LF_uzQrmGtcTdr1EB5Od-460">
          <mxGeometry width="119.99999999999977" height="30" as="geometry">
            <mxRectangle width="119.99999999999977" height="30" as="alternateBounds" />
          </mxGeometry>
        </mxCell>
        <mxCell id="LF_uzQrmGtcTdr1EB5Od-462" value="TEXT" style="shape=partialRectangle;connectable=0;fillColor=none;top=0;left=0;bottom=0;right=0;align=center;spacingLeft=0;overflow=hidden;whiteSpace=wrap;html=1;" vertex="1" parent="LF_uzQrmGtcTdr1EB5Od-460">
          <mxGeometry x="119.99999999999977" width="80.00000000000023" height="30" as="geometry">
            <mxRectangle width="80.00000000000023" height="30" as="alternateBounds" />
          </mxGeometry>
        </mxCell>
        <mxCell id="LF_uzQrmGtcTdr1EB5Od-463" style="shape=partialRectangle;connectable=0;fillColor=none;top=0;left=0;bottom=0;right=0;align=center;spacingLeft=0;overflow=hidden;whiteSpace=wrap;html=1;fontSize=16;" vertex="1" parent="LF_uzQrmGtcTdr1EB5Od-460">
          <mxGeometry x="200" width="40" height="30" as="geometry">
            <mxRectangle width="40" height="30" as="alternateBounds" />
          </mxGeometry>
        </mxCell>
        <mxCell id="LF_uzQrmGtcTdr1EB5Od-464" style="shape=partialRectangle;connectable=0;fillColor=none;top=0;left=0;bottom=0;right=0;align=center;spacingLeft=0;overflow=hidden;whiteSpace=wrap;html=1;fontSize=16;" vertex="1" parent="LF_uzQrmGtcTdr1EB5Od-460">
          <mxGeometry x="240" width="40" height="30" as="geometry">
            <mxRectangle width="40" height="30" as="alternateBounds" />
          </mxGeometry>
        </mxCell>
        <mxCell id="LF_uzQrmGtcTdr1EB5Od-465" value="✅" style="shape=partialRectangle;connectable=0;fillColor=none;top=0;left=0;bottom=0;right=0;align=center;spacingLeft=0;overflow=hidden;whiteSpace=wrap;html=1;fontSize=16;" vertex="1" parent="LF_uzQrmGtcTdr1EB5Od-460">
          <mxGeometry x="280" width="40" height="30" as="geometry">
            <mxRectangle width="40" height="30" as="alternateBounds" />
          </mxGeometry>
        </mxCell>
        <mxCell id="LF_uzQrmGtcTdr1EB5Od-466" style="shape=partialRectangle;connectable=0;fillColor=none;top=0;left=0;bottom=0;right=0;align=center;spacingLeft=0;overflow=hidden;whiteSpace=wrap;html=1;fontSize=16;" vertex="1" parent="LF_uzQrmGtcTdr1EB5Od-460">
          <mxGeometry x="320" width="40" height="30" as="geometry">
            <mxRectangle width="40" height="30" as="alternateBounds" />
          </mxGeometry>
        </mxCell>
        <mxCell id="LF_uzQrmGtcTdr1EB5Od-467" style="shape=partialRectangle;connectable=0;fillColor=none;top=0;left=0;bottom=0;right=0;align=center;spacingLeft=0;overflow=hidden;whiteSpace=wrap;html=1;fontSize=16;" vertex="1" parent="LF_uzQrmGtcTdr1EB5Od-460">
          <mxGeometry x="360" width="40" height="30" as="geometry">
            <mxRectangle width="40" height="30" as="alternateBounds" />
          </mxGeometry>
        </mxCell>
      </root>
    </mxGraphModel>
  </diagram>
</mxfile>
